<svg width="20" height="20" viewBox="0 0 20 20" fill="none" xmlns="http://www.w3.org/2000/svg">
<path d="M4.50293 2.6582H7.83691C7.89152 2.65825 7.94564 2.66953 7.99609 2.69043C8.04646 2.71131 8.09227 2.74177 8.13086 2.78027C8.16955 2.81896 8.20074 2.86546 8.22168 2.91602C8.24255 2.96649 8.25293 3.02058 8.25293 3.0752C8.25293 3.1298 8.24254 3.18391 8.22168 3.23438C8.20074 3.28493 8.16955 3.33143 8.13086 3.37012C8.09226 3.40863 8.04646 3.43908 7.99609 3.45996C7.94564 3.48086 7.89152 3.49214 7.83691 3.49219H4.50293C3.95051 3.49227 3.4209 3.71192 3.03027 4.10254C2.63967 4.49322 2.41993 5.02274 2.41992 5.5752V15.5752C2.41992 16.1277 2.63957 16.6581 3.03027 17.0488C3.42087 17.4393 3.95066 17.6581 4.50293 17.6582H14.5029C15.0554 17.6582 15.5859 17.4394 15.9766 17.0488C16.3673 16.6581 16.5869 16.1277 16.5869 15.5752V12.2422C16.5869 12.1317 16.6308 12.0254 16.709 11.9473C16.787 11.8693 16.8926 11.8253 17.0029 11.8252C17.1134 11.8252 17.2197 11.8691 17.2979 11.9473C17.376 12.0254 17.4199 12.1317 17.4199 12.2422V15.5752C17.4199 16.3487 17.1124 17.0907 16.5654 17.6377C16.0185 18.1846 15.2764 18.4922 14.5029 18.4922H4.50293C3.7295 18.4921 2.98733 18.1846 2.44043 17.6377C1.89356 17.0907 1.58691 16.3487 1.58691 15.5752V5.5752C1.58692 4.80173 1.89355 4.05966 2.44043 3.5127C2.98733 2.96579 3.7295 2.65829 4.50293 2.6582ZM15.7656 1.75781C16.4587 1.06586 17.3934 1.05887 17.8623 1.52832H17.8633L18.3545 2.01953C18.8242 2.48987 18.8161 3.42475 18.124 4.11621L8.04883 14.1904L4.85059 15.3604C4.74108 15.4006 4.65622 15.3879 4.60547 15.3633C4.55935 15.3407 4.52304 15.3009 4.50781 15.2354C4.49511 15.1696 4.50045 15.1016 4.52441 15.0391L4.52637 15.0342L5.71973 11.8057L15.7666 1.75879L15.7656 1.75781Z" fill="#B3B7C2" stroke="#B3B7C2" stroke-width="0.833333"/>
</svg>
