<svg width="20" height="20" viewBox="0 0 20 20" fill="none" xmlns="http://www.w3.org/2000/svg">
<path d="M3.33301 3.75024H16.666C17.3526 3.75024 17.916 4.3137 17.916 5.00024V15.0002C17.9158 15.6866 17.3525 16.2502 16.666 16.2502H3.33301C2.64657 16.2502 2.08319 15.6866 2.08301 15.0002L2.09082 5.00024L2.09766 4.87231C2.16145 4.24277 2.69191 3.75024 3.33301 3.75024ZM16.2129 5.15552C16.0639 5.12482 15.9098 5.12413 15.7607 5.15454C15.618 5.18369 15.4824 5.24071 15.3613 5.32153L9.99902 8.67505L4.63672 5.32153H4.63574C4.51487 5.24106 4.37971 5.18359 4.2373 5.15454C4.08844 5.12423 3.93494 5.12491 3.78613 5.15552C3.63709 5.18624 3.49505 5.24636 3.37012 5.33325C3.24517 5.42016 3.13926 5.53232 3.05859 5.66138C2.97811 5.79025 2.92474 5.93409 2.90137 6.08423C2.878 6.23462 2.88515 6.38893 2.92285 6.53638C2.96057 6.68367 3.02752 6.82202 3.12012 6.94263C3.21271 7.06322 3.32937 7.16307 3.46191 7.23755L9.33691 10.9114C9.73869 11.1625 10.2603 11.1625 10.6621 10.9114L16.5361 7.23755L16.5371 7.23853C16.6696 7.1641 16.7853 7.06313 16.8779 6.94263C16.9705 6.822 17.0385 6.6837 17.0762 6.53638C17.1139 6.38893 17.121 6.23462 17.0977 6.08423C17.0743 5.93413 17.0209 5.79023 16.9404 5.66138C16.8598 5.53232 16.7529 5.42016 16.6279 5.33325C16.5031 5.24652 16.3618 5.1862 16.2129 5.15552Z" fill="#B3B7C2" stroke="#B3B7C2" stroke-width="0.833333"/>
</svg>
