<svg width="320" height="88" viewBox="0 0 320 88" fill="none" xmlns="http://www.w3.org/2000/svg">
<rect x="12" y="3" width="296" height="85" rx="4.34783" fill="url(#paint0_linear_27_316)"/>
<g filter="url(#filter0_i_27_316)">
<path d="M5.51997 3.32754C5.95713 1.37091 7.69923 0 9.7041 0H310.842C312.885 0 314.649 1.41851 315.05 3.42126C316.57 10.993 320 29.5232 320 42.5C320 55.4768 316.57 74.007 315.05 81.5787C314.649 83.5815 312.885 85 310.842 85H9.70409C7.69921 85 5.95713 83.6291 5.51997 81.6725C3.8423 74.1636 0 55.5426 0 42.5C0 29.4574 3.84229 10.8364 5.51997 3.32754Z" fill="#5B91D5"/>
<path d="M5.51997 3.32754C5.95713 1.37091 7.69923 0 9.7041 0H310.842C312.885 0 314.649 1.41851 315.05 3.42126C316.57 10.993 320 29.5232 320 42.5C320 55.4768 316.57 74.007 315.05 81.5787C314.649 83.5815 312.885 85 310.842 85H9.70409C7.69921 85 5.95713 83.6291 5.51997 81.6725C3.8423 74.1636 0 55.5426 0 42.5C0 29.4574 3.84229 10.8364 5.51997 3.32754Z" fill="url(#paint1_radial_27_316)" fill-opacity="0.2"/>
</g>
<defs>
<filter id="filter0_i_27_316" x="0" y="0" width="320" height="88.4783" filterUnits="userSpaceOnUse" color-interpolation-filters="sRGB">
<feFlood flood-opacity="0" result="BackgroundImageFix"/>
<feBlend mode="normal" in="SourceGraphic" in2="BackgroundImageFix" result="shape"/>
<feColorMatrix in="SourceAlpha" type="matrix" values="0 0 0 0 0 0 0 0 0 0 0 0 0 0 0 0 0 0 127 0" result="hardAlpha"/>
<feOffset dy="3.47826"/>
<feGaussianBlur stdDeviation="3.47826"/>
<feComposite in2="hardAlpha" operator="arithmetic" k2="-1" k3="1"/>
<feColorMatrix type="matrix" values="0 0 0 0 1 0 0 0 0 1 0 0 0 0 1 0 0 0 0.3 0"/>
<feBlend mode="normal" in2="shape" result="effect1_innerShadow_27_316"/>
</filter>
<linearGradient id="paint0_linear_27_316" x1="178.442" y1="3.00002" x2="39.0026" y2="135.383" gradientUnits="userSpaceOnUse">
<stop stop-color="#396FB3"/>
<stop offset="1" stop-color="#477DC1"/>
</linearGradient>
<radialGradient id="paint1_radial_27_316" cx="0" cy="0" r="1" gradientTransform="matrix(258.945 128.485 -483.707 504.84 61.0551 13.8849)" gradientUnits="userSpaceOnUse">
<stop stop-color="white"/>
<stop offset="1" stop-opacity="0"/>
</radialGradient>
</defs>
</svg>
