<svg width="100" height="100" viewBox="0 0 100 100" fill="none" xmlns="http://www.w3.org/2000/svg">
<path d="M27.093 12C27.093 13.9579 28.963 15.8165 30.9095 15.8165H69.0745C71.0323 15.8165 72.891 13.9464 72.891 12H80.524C80.524 15.0366 79.3177 17.9488 77.1705 20.096C75.0233 22.2432 72.1111 23.4495 69.0745 23.4495H53.8085L53.8123 31.3191C61.1904 32.2496 67.9752 35.8409 72.8933 41.4188C77.8115 46.9968 80.5248 54.178 80.524 61.6145V84.5135C80.524 85.5257 80.1219 86.4964 79.4061 87.2122C78.6904 87.9279 77.7197 88.33 76.7075 88.33H23.2765C22.2643 88.33 21.2935 87.9279 20.5778 87.2122C19.8621 86.4964 19.46 85.5257 19.46 84.5135V61.6145C19.4593 54.1774 22.1731 46.9958 27.092 41.4177C32.0109 35.8396 38.7967 32.2488 46.1755 31.3191V23.4495H30.9095C24.5741 23.4495 19.46 18.3354 19.46 12H27.093ZM49.992 46.3485C46.6254 46.349 43.3535 47.4623 40.6853 49.5151C38.017 51.5679 36.1022 54.4452 35.2388 57.6991C34.3754 60.953 34.6117 64.4011 35.9111 67.5068C37.2105 70.6124 39.5 73.2015 42.4234 74.871C45.3468 76.5405 48.74 77.1969 52.0752 76.738C55.4103 76.2791 58.5001 74.7306 60.8639 72.3336C63.2278 69.9365 64.7329 66.8253 65.1452 63.4841C65.5575 60.1429 64.8538 56.7592 63.1436 53.8594L52.6902 64.3166L52.3315 64.6295C51.5644 65.2227 50.6003 65.5016 49.635 65.4096C48.6697 65.3177 47.7757 64.8617 47.1344 64.1345C46.4931 63.4072 46.1526 62.463 46.1822 61.4938C46.2118 60.5246 46.6092 59.603 47.2937 58.9162L57.7471 48.459C55.397 47.0755 52.7191 46.3467 49.992 46.3485Z" fill="#3A6DAE" fill-opacity="0.8"/>
</svg>
