<svg width="100" height="100" viewBox="0 0 100 100" fill="none" xmlns="http://www.w3.org/2000/svg">
<path d="M80.4657 38.4179L72.1513 88.056C72.021 88.7682 71.6457 89.4124 71.0905 89.877C70.5352 90.3416 69.835 90.5973 69.111 90.6H30.8896C30.1656 90.5973 29.4653 90.3416 28.9101 89.877C28.3548 89.4124 27.9795 88.7682 27.8492 88.056L19.5348 38.4179C19.4632 37.9761 19.488 37.524 19.6076 37.0928C19.7271 36.6615 19.9386 36.2611 20.2274 35.9193C20.5162 35.5774 20.8756 35.3021 21.2808 35.1122C21.6861 34.9222 22.1276 34.8223 22.5752 34.8191H77.3633C77.8161 34.8133 78.2646 34.9066 78.6775 35.0926C79.0903 35.2785 79.4575 35.5526 79.7531 35.8955C80.0488 36.2385 80.2658 36.642 80.3889 37.0778C80.512 37.5135 80.5382 37.9709 80.4657 38.4179ZM84.1265 25.5119C84.1265 26.3347 83.7997 27.1238 83.2179 27.7057C82.636 28.2875 81.8469 28.6143 81.0241 28.6143H18.9764C18.1536 28.6143 17.3645 28.2875 16.7827 27.7057C16.2009 27.1238 15.874 26.3347 15.874 25.5119C15.874 24.6891 16.2009 23.9 16.7827 23.3182C17.3645 22.7364 18.1536 22.4095 18.9764 22.4095H34.4883V13.1024C34.4883 12.2796 34.8152 11.4905 35.397 10.9087C35.9788 10.3269 36.7679 10 37.5907 10H62.4098C63.2326 10 64.0217 10.3269 64.6035 10.9087C65.1854 11.4905 65.5122 12.2796 65.5122 13.1024V22.4095H81.0241C81.8469 22.4095 82.636 22.7364 83.2179 23.3182C83.7997 23.9 84.1265 24.6891 84.1265 25.5119ZM59.3074 22.4095V16.2048H40.6931V22.4095H59.3074Z" fill="#3A6DAE" fill-opacity="0.8"/>
</svg>
