<svg width="100" height="100" viewBox="0 0 100 100" fill="none" xmlns="http://www.w3.org/2000/svg">
<path d="M75.0003 77.0832C73.3427 77.0832 71.753 76.4247 70.5809 75.2526C69.4088 74.0805 68.7503 72.4908 68.7503 70.8332C68.7503 69.1756 69.4088 67.5859 70.5809 66.4137C71.753 65.2416 73.3427 64.5832 75.0003 64.5832C76.6579 64.5832 78.2476 65.2416 79.4197 66.4137C80.5918 67.5859 81.2503 69.1756 81.2503 70.8332C81.2503 72.4908 80.5918 74.0805 79.4197 75.2526C78.2476 76.4247 76.6579 77.0832 75.0003 77.0832ZM81.2503 39.5832L89.417 49.9998H70.8337V39.5832M25.0003 77.0832C23.3427 77.0832 21.753 76.4247 20.5809 75.2526C19.4088 74.0805 18.7503 72.4908 18.7503 70.8332C18.7503 69.1756 19.4088 67.5859 20.5809 66.4137C21.753 65.2416 23.3427 64.5832 25.0003 64.5832C26.6579 64.5832 28.2476 65.2416 29.4197 66.4137C30.5918 67.5859 31.2503 69.1756 31.2503 70.8332C31.2503 72.4908 30.5918 74.0805 29.4197 75.2526C28.2476 76.4247 26.6579 77.0832 25.0003 77.0832ZM83.3337 33.3332H70.8337V16.6665H12.5003C7.87533 16.6665 4.16699 20.3748 4.16699 24.9998V70.8332H12.5003C12.5003 74.1484 13.8173 77.3278 16.1615 79.672C18.5057 82.0162 21.6851 83.3332 25.0003 83.3332C28.3155 83.3332 31.495 82.0162 33.8392 79.672C36.1834 77.3278 37.5003 74.1484 37.5003 70.8332H62.5003C62.5003 74.1484 63.8173 77.3278 66.1615 79.672C68.5057 82.0162 71.6851 83.3332 75.0003 83.3332C78.3155 83.3332 81.495 82.0162 83.8392 79.672C86.1834 77.3278 87.5003 74.1484 87.5003 70.8332H95.8337V49.9998L83.3337 33.3332Z" fill="#3A6DAE" fill-opacity="0.8"/>
</svg>
