<svg width="60" height="60" viewBox="0 0 60 60" fill="none" xmlns="http://www.w3.org/2000/svg">
<path d="M27.5 10V24.845L24.645 26.2C22.0804 27.4159 20.0059 29.4685 18.7627 32.02C17.5196 34.5716 17.1819 37.4703 17.805 40.2393C18.4282 43.0084 19.9752 45.4829 22.1916 47.2559C24.4079 49.0289 27.1617 49.9949 30 49.9949C32.8383 49.9949 35.5921 49.0289 37.8085 47.2559C40.0249 45.4829 41.5718 43.0084 42.195 40.2393C42.8182 37.4703 42.4804 34.5716 41.2373 32.02C39.9942 29.4685 37.9197 27.4159 35.355 26.2L32.5 24.845V10H27.5ZM22.5 21.685V5H37.5V21.685C41.09 23.3879 43.9935 26.2617 45.7333 29.8339C47.473 33.4061 47.9454 37.464 47.0726 41.3403C46.1999 45.2166 44.034 48.6805 40.9312 51.1624C37.8284 53.6443 33.9733 54.9964 30 54.9964C26.0267 54.9964 22.1716 53.6443 19.0688 51.1624C15.966 48.6805 13.8001 45.2166 12.9274 41.3403C12.0546 37.464 12.527 33.4061 14.2667 29.8339C16.0065 26.2617 18.9101 23.3879 22.5 21.685ZM21.3375 32.5H38.6625C39.5393 34.0203 40.0006 35.7445 40 37.4995C39.9994 39.2545 39.537 40.9784 38.6592 42.4981C37.7813 44.0177 36.519 45.2796 34.999 46.1569C33.4791 47.0342 31.755 47.4961 30 47.4961C28.245 47.4961 26.521 47.0342 25.001 46.1569C23.481 45.2796 22.2187 44.0177 21.3409 42.4981C20.4631 40.9784 20.0006 39.2545 20 37.4995C19.9994 35.7445 20.4607 34.0203 21.3375 32.5ZM22.5 5H37.5C38.1631 5 38.7989 5.26339 39.2678 5.73223C39.7366 6.20107 40 6.83696 40 7.5C40 8.16304 39.7366 8.79893 39.2678 9.26777C38.7989 9.73661 38.1631 10 37.5 10H22.5C21.837 10 21.2011 9.73661 20.7323 9.26777C20.2634 8.79893 20 8.16304 20 7.5C20 6.83696 20.2634 6.20107 20.7323 5.73223C21.2011 5.26339 21.837 5 22.5 5Z" fill="#3A6DAE" fill-opacity="0.9"/>
</svg>
