<svg width="60" height="60" viewBox="0 0 60 60" fill="none" xmlns="http://www.w3.org/2000/svg">
<path d="M27.5 17.5L32.5 25L27.5 32.5H20L15 25L20 17.5H27.5Z" stroke="#3A6DAE" stroke-opacity="0.9" stroke-width="5" stroke-linecap="round" stroke-linejoin="round"/>
<path d="M40 25L45 17.5L40 10H32.5L27.5 17.5L32.5 25M40 25H32.5M40 25L45 32.5M32.5 25L27.5 32.5L32.5 40M40 40L45 47.5M40 40L45 32.5M40 40H32.5M12.5 10L20 17.5M20 32.5L15 37.5M32.5 40L27.5 45M15 25H10M45 32.5H52.5" stroke="#3A6DAE" stroke-opacity="0.9" stroke-width="5" stroke-linecap="round" stroke-linejoin="round"/>
<path d="M22.5 52.5C23.8807 52.5 25 51.3807 25 50C25 48.6193 23.8807 47.5 22.5 47.5C21.1193 47.5 20 48.6193 20 50C20 51.3807 21.1193 52.5 22.5 52.5Z" fill="#3A6DAE" fill-opacity="0.9"/>
<path d="M10 45C11.3807 45 12.5 43.8807 12.5 42.5C12.5 41.1193 11.3807 40 10 40C8.61929 40 7.5 41.1193 7.5 42.5C7.5 43.8807 8.61929 45 10 45Z" fill="#3A6DAE" fill-opacity="0.9"/>
<path d="M52.5 20C53.8807 20 55 18.8807 55 17.5C55 16.1193 53.8807 15 52.5 15C51.1193 15 50 16.1193 50 17.5C50 18.8807 51.1193 20 52.5 20Z" fill="#3A6DAE" fill-opacity="0.9"/>
</svg>
