<svg width="60" height="60" viewBox="0 0 60 60" fill="none" xmlns="http://www.w3.org/2000/svg">
<path d="M41.8713 33.3837L26.2986 17.8111L31.0227 13.0393C32.082 12.0102 33.2813 11.2117 34.6206 10.6439C35.9599 10.076 37.3715 9.79132 38.8556 9.78973C41.9206 9.78973 44.526 10.8626 46.6717 13.0083C48.8174 15.154 49.8903 17.7594 49.8903 20.8244C49.8903 22.3085 49.6056 23.7201 49.0361 25.0594C48.4667 26.3987 47.669 27.598 46.6431 28.6573L41.8713 33.3837ZM49.2294 50.92L36.7822 38.4705L30.5837 44.7143C29.5562 45.7418 28.3648 46.5403 27.0096 47.1097C25.6545 47.6792 24.2349 47.9639 22.7508 47.9639C19.6858 47.9639 17.0804 46.891 14.9347 44.7453C12.789 42.5996 11.7161 39.9942 11.7161 36.9292C11.7161 35.4452 12.0008 34.0263 12.5703 32.6728C13.1397 31.3176 13.9382 30.1254 14.9657 29.0963L21.2095 22.8978L9.00098 10.6892L10.6878 9L50.9186 49.2308L49.2294 50.92Z" fill="#3A6DAE" fill-opacity="0.9"/>
</svg>
