<svg width="60" height="60" viewBox="0 0 60 60" fill="none" xmlns="http://www.w3.org/2000/svg">
<path d="M42.437 6.43775C42.5763 6.29806 42.7418 6.18723 42.9241 6.11161C43.1063 6.03599 43.3017 5.99707 43.499 5.99707C43.6963 5.99707 43.8916 6.03599 44.0739 6.11161C44.2561 6.18723 44.4216 6.29806 44.561 6.43775L53.561 15.4378C53.8426 15.7194 54.0009 16.1014 54.0009 16.4998C54.0009 16.8981 53.8426 17.2801 53.561 17.5618C53.2793 17.8434 52.8973 18.0016 52.499 18.0016C52.1006 18.0016 51.7186 17.8434 51.437 17.5618L50.249 16.3708L44.87 21.7498L50.561 27.4378C50.8426 27.7194 51.0009 28.1014 51.0009 28.4998C51.0009 28.8981 50.8426 29.2801 50.561 29.5618C50.2793 29.8434 49.8973 30.0016 49.499 30.0016C49.1006 30.0016 48.7186 29.8434 48.437 29.5618L44.999 26.1208L28.319 42.8008C27.6223 43.498 26.795 44.0512 25.8843 44.4285C24.9737 44.8058 23.9977 44.9999 23.012 44.9998H17.12L8.56097 53.5618C8.27931 53.8434 7.89729 54.0016 7.49897 54.0016C7.10064 54.0016 6.71862 53.8434 6.43696 53.5618C6.1553 53.2801 5.99707 52.8981 5.99707 52.4998C5.99707 52.1014 6.1553 51.7194 6.43696 51.4378L14.999 42.8788V36.9838C14.9994 34.9955 15.7893 33.0888 17.195 31.6828L18.875 29.9998L21.437 32.5618C21.7186 32.8434 22.1006 33.0016 22.499 33.0016C22.8973 33.0016 23.2793 32.8434 23.561 32.5618C23.8426 32.2801 24.0009 31.8981 24.0009 31.4998C24.0009 31.1014 23.8426 30.7194 23.561 30.4378L20.999 27.8788L23.378 25.4998L25.937 28.0618C26.2186 28.3434 26.6006 28.5016 26.999 28.5016C27.3973 28.5016 27.7793 28.3434 28.061 28.0618C28.3426 27.7801 28.5009 27.3981 28.5009 26.9998C28.5009 26.6014 28.3426 26.2194 28.061 25.9378L25.499 23.3788L27.878 20.9998L30.437 23.5618C30.7186 23.8434 31.1006 24.0016 31.499 24.0016C31.8973 24.0016 32.2793 23.8434 32.561 23.5618C32.8426 23.2801 33.0009 22.8981 33.0009 22.4998C33.0009 22.1014 32.8426 21.7194 32.561 21.4378L29.999 18.8788L33.878 14.9998L30.437 11.5618C30.1553 11.2801 29.9971 10.8981 29.9971 10.4998C29.9971 10.1014 30.1553 9.71941 30.437 9.43775C30.7186 9.15609 31.1006 8.99786 31.499 8.99786C31.8973 8.99786 32.2793 9.15609 32.561 9.43775L38.249 15.1288L43.628 9.74975L42.437 8.56175C42.2973 8.42242 42.1864 8.25689 42.1108 8.07465C42.0352 7.89242 41.9963 7.69705 41.9963 7.49975C41.9963 7.30245 42.0352 7.10709 42.1108 6.92485C42.1864 6.74262 42.2973 6.57709 42.437 6.43775ZM48.128 14.2498L45.749 11.8708L40.37 17.2498L42.749 19.6288L48.128 14.2498Z" fill="#3A6DAE" fill-opacity="0.9"/>
</svg>
