<svg width="60" height="60" viewBox="0 0 60 60" fill="none" xmlns="http://www.w3.org/2000/svg">
<path d="M27.4989 19.575C26.036 19.0578 24.7695 18.0996 23.874 16.8325C22.9785 15.5653 22.498 14.0516 22.4989 12.5C22.4989 10.5109 23.289 8.60322 24.6956 7.1967C26.1021 5.79018 28.0097 5 29.9989 5C31.988 5 33.8956 5.79018 35.3022 7.1967C36.7087 8.60322 37.4989 10.5109 37.4989 12.5C37.4989 15.775 35.3989 18.55 32.4989 19.575V26.6C30.8645 26.1358 29.1332 26.1358 27.4989 26.6V19.575ZM45.7489 52.75C44.4012 51.982 43.3258 50.8137 42.6718 49.4072C42.0178 48.0006 41.8176 46.4254 42.0989 44.9L35.9989 41.375C37.1989 40.225 38.0989 38.75 38.4989 37.05L44.5989 40.575C46.9489 38.55 50.3989 38.15 53.2239 39.775C56.8239 41.85 58.0489 46.425 55.9739 50C55.4849 50.8539 54.8321 51.6027 54.0528 52.2034C53.2735 52.8042 52.3832 53.245 51.433 53.5005C50.4828 53.7561 49.4915 53.8213 48.516 53.6925C47.5406 53.5637 46.6001 53.2434 45.7489 52.75ZM6.74886 39.75C9.57386 38.125 13.0239 38.55 15.3739 40.55L21.4989 37.025C21.8989 38.75 22.7739 40.2 23.9989 41.35L17.8739 44.875C18.4489 47.925 17.0739 51.125 14.2489 52.75C10.6489 54.825 6.07386 53.6 3.99886 50C3.50585 49.1465 3.18589 48.2043 3.05729 47.2271C2.92868 46.2499 2.99394 45.257 3.24934 44.305C3.50474 43.3531 3.94527 42.4608 4.54575 41.6792C5.14622 40.8976 5.89486 40.2421 6.74886 39.75ZM34.9989 35C34.9989 36.3261 34.4721 37.5979 33.5344 38.5355C32.5967 39.4732 31.3249 40 29.9989 40C28.6728 40 27.401 39.4732 26.4633 38.5355C25.5256 37.5979 24.9989 36.3261 24.9989 35C24.9989 33.6739 25.5256 32.4021 26.4633 31.4645C27.401 30.5268 28.6728 30 29.9989 30C31.3249 30 32.5967 30.5268 33.5344 31.4645C34.4721 32.4021 34.9989 33.6739 34.9989 35ZM42.4989 35L42.4239 36.425L38.7489 34.275C38.4989 31.6 37.0739 29.275 34.9989 27.8V23.525C39.4239 25.475 42.4989 29.875 42.4989 35ZM37.4239 45.075C35.3489 46.6 32.7739 47.5 29.9989 47.5C27.2239 47.5 24.6489 46.6 22.5739 45L26.2489 42.925C27.3989 43.45 28.6739 43.75 29.9989 43.75C31.3239 43.75 32.5739 43.45 33.7489 42.925L37.4239 45.075ZM17.5739 36.4L17.4989 35C17.4989 29.875 20.5739 25.475 24.9989 23.55V27.825C22.9239 29.275 21.4989 31.6 21.2489 34.25L17.5739 36.4Z" fill="#3A6DAE" fill-opacity="0.9"/>
</svg>
