<svg width="60" height="60" viewBox="0 0 60 60" fill="none" xmlns="http://www.w3.org/2000/svg">
<path d="M39.2675 10.7327L46.7675 18.2327C47.2362 18.7015 47.4995 19.3373 47.4995 20.0002C47.4995 20.6631 47.2362 21.2989 46.7675 21.7677L42.885 25.6552C45.9623 29.002 47.6162 33.4149 47.4968 37.9598C47.3773 42.5047 45.4938 46.8247 42.245 50.0052L47.5 50.0002C48.163 50.0002 48.7989 50.2636 49.2678 50.7324C49.7366 51.2013 50 51.8372 50 52.5002C50 53.1632 49.7366 53.7991 49.2678 54.268C48.7989 54.7368 48.163 55.0002 47.5 55.0002H12.5C11.837 55.0002 11.2011 54.7368 10.7322 54.268C10.2634 53.7991 10 53.1632 10 52.5002C10 51.8372 10.2634 51.2013 10.7322 50.7324C11.2011 50.2636 11.837 50.0002 12.5 50.0002H15V47.5002C14.337 47.5002 13.7011 47.2368 13.2322 46.768C12.7634 46.2991 12.5 45.6632 12.5 45.0002C12.5 44.3372 12.7634 43.7013 13.2322 43.2324C13.7011 42.7636 14.337 42.5002 15 42.5002H20C20.663 42.5002 21.2989 42.7636 21.7678 43.2324C22.2366 43.7013 22.5 44.3372 22.5 45.0002C22.5 45.6632 22.2366 46.2991 21.7678 46.768C21.2989 47.2368 20.663 47.5002 20 47.5002V50.0002H30C32.4103 50.0007 34.7693 49.3043 36.793 47.9949C38.8166 46.6856 40.4185 44.8191 41.4058 42.6202C42.3931 40.4214 42.7236 37.984 42.3575 35.6017C41.9914 33.2194 40.9444 30.9937 39.3425 29.1927L31.7675 36.7677C31.2987 37.2364 30.6629 37.4997 30 37.4997C29.3371 37.4997 28.7013 37.2364 28.2325 36.7677L26.25 34.7877L24.2675 36.7677C24.0369 37.0065 23.761 37.1969 23.456 37.328C23.151 37.459 22.823 37.5279 22.491 37.5308C22.1591 37.5337 21.8299 37.4705 21.5226 37.3448C21.2154 37.2191 20.9362 37.0334 20.7015 36.7987C20.4668 36.564 20.2811 36.2848 20.1554 35.9776C20.0297 35.6703 19.9665 35.3411 19.9694 35.0092C19.9723 34.6773 20.0412 34.3492 20.1722 34.0442C20.3033 33.7392 20.4937 33.4633 20.7325 33.2327L22.7125 31.2502L20.7325 29.2677C20.2638 28.7989 20.0005 28.1631 20.0005 27.5002C20.0005 26.8373 20.2638 26.2015 20.7325 25.7327L35.7325 10.7327C36.2013 10.264 36.8371 10.0007 37.5 10.0007C38.1629 10.0007 38.7987 10.264 39.2675 10.7327ZM44.2675 5.7327L51.7675 13.2327C52.0063 13.4633 52.1967 13.7392 52.3278 14.0442C52.4588 14.3492 52.5277 14.6773 52.5306 15.0092C52.5335 15.3411 52.4703 15.6703 52.3446 15.9776C52.2189 16.2848 52.0332 16.564 51.7985 16.7987C51.5638 17.0334 51.2846 17.2191 50.9774 17.3448C50.6701 17.4705 50.3409 17.5337 50.009 17.5308C49.677 17.5279 49.349 17.459 49.044 17.328C48.739 17.1969 48.4631 17.0065 48.2325 16.7677L40.7325 9.2677C40.4937 9.03709 40.3033 8.76122 40.1722 8.45621C40.0412 8.1512 39.9723 7.82315 39.9694 7.49121C39.9665 7.15926 40.0297 6.83006 40.1554 6.52282C40.2811 6.21558 40.4668 5.93645 40.7015 5.70172C40.9362 5.46698 41.2154 5.28135 41.5226 5.15565C41.8299 5.02995 42.1591 4.96669 42.491 4.96958C42.823 4.97246 43.151 5.04143 43.456 5.17245C43.761 5.30347 44.0369 5.49393 44.2675 5.7327Z" fill="#3A6DAE" fill-opacity="0.9"/>
</svg>
