<svg width="60" height="60" viewBox="0 0 60 60" fill="none" xmlns="http://www.w3.org/2000/svg">
<path d="M46.1349 29.0948L41.4532 33.7765L38.3541 30.6554L21.4077 47.6018L11.297 51.69L8 48.393L12.0882 38.2823L29.0346 21.3359L25.9135 18.2368L30.5952 13.5551L46.1349 29.0948ZM40.4422 9.92842C41.6785 8.69359 43.3545 8 45.1019 8C46.8493 8 48.5252 8.69359 49.7616 9.92842C50.9964 11.1648 51.69 12.8407 51.69 14.5881C51.69 16.3355 50.9964 18.0115 49.7616 19.2478L45.5415 23.468L36.222 14.1485L40.4422 9.92842ZM15.8248 40.7661L13.4949 46.1951L18.924 43.8652L35.2549 27.5122L32.1778 24.4351L15.8248 40.7661Z" fill="#3A6DAE" fill-opacity="0.9"/>
</svg>
