<svg width="60" height="60" viewBox="0 0 60 60" fill="none" xmlns="http://www.w3.org/2000/svg">
<path d="M44.9053 33.8973C44.8452 33.7302 44.7743 33.5672 44.693 33.4094L44.7032 33.4318C44.4051 32.7356 42.0082 28.1051 41.608 27.4743L30.4789 6L19.066 28.001C18.6781 28.6339 16.5506 32.7377 16.2566 33.4318L16.1403 33.6891C15.3835 35.5397 14.9964 37.5207 15.001 39.5201C15.001 43.6256 16.6319 47.563 19.535 50.466C22.438 53.3691 26.3754 55 30.4809 55C34.5865 55 38.5238 53.3691 41.4269 50.466C44.3299 47.563 45.9609 43.6256 45.9609 39.5201V39.5078L45.9629 39.3016C45.9629 37.3518 45.575 35.4919 44.8706 33.7973L44.9053 33.8933V33.8973ZM30.4871 50.9555C28.5068 50.9559 26.5606 50.4406 24.84 49.4603C23.1194 48.48 21.6837 47.0686 20.6743 45.3649C19.665 43.6612 19.1167 41.724 19.0835 39.744C19.0503 37.764 19.5333 35.8095 20.4849 34.0729L20.4543 34.1321C20.305 34.9272 20.2298 35.7344 20.2297 36.5433V36.5454C20.2319 40.1705 21.6729 43.6465 24.2363 46.2098C26.7996 48.7732 30.2756 50.2142 33.9007 50.2164C34.1314 50.2164 34.3785 50.2164 34.6071 50.2041C33.3026 50.707 31.9157 50.9618 30.5177 50.9555H30.4707H30.4871Z" fill="#3A6DAE" fill-opacity="0.9"/>
</svg>
