<svg width="60" height="60" viewBox="0 0 60 60" fill="none" xmlns="http://www.w3.org/2000/svg">
<path d="M52.5 27.5H52.075C49.4425 27.5 47.18 25.8275 46.1825 23.39L46.13 23.2675C45.11 20.825 45.5075 18.025 47.38 16.1525L47.6775 15.855C47.9096 15.6229 48.0937 15.3473 48.2194 15.0441C48.345 14.7408 48.4096 14.4158 48.4096 14.0875C48.4096 13.7592 48.345 13.4342 48.2194 13.1309C48.0937 12.8277 47.9096 12.5521 47.6775 12.32C47.4454 12.0879 47.1698 11.9038 46.8666 11.7781C46.5633 11.6525 46.2383 11.5879 45.91 11.5879C45.5817 11.5879 45.2567 11.6525 44.9534 11.7781C44.6502 11.9038 44.3746 12.0879 44.1425 12.32L43.845 12.6175C41.9725 14.49 39.1725 14.8875 36.73 13.8675L36.6075 13.815C34.1725 12.82 32.5 10.545 32.5 7.9125V7.71C32.5 6.1175 31.3825 5 30 5C28.6175 5 27.5 6.1175 27.5 7.5V7.59C27.5 10.33 25.85 12.8 23.3175 13.8475L23.3025 13.855C22.0645 14.3674 20.7024 14.5013 19.3883 14.2396C18.0743 13.978 16.8673 13.3326 15.92 12.385L15.8575 12.3225C15.6254 12.0904 15.3498 11.9063 15.0466 11.7806C14.7433 11.655 14.4183 11.5904 14.09 11.5904C13.7617 11.5904 13.4367 11.655 13.1334 11.7806C12.8302 11.9063 12.5546 12.0904 12.3225 12.3225C12.0904 12.5546 11.9063 12.8302 11.7806 13.1334C11.655 13.4367 11.5904 13.7617 11.5904 14.09C11.5904 14.4183 11.655 14.7433 11.7806 15.0466C11.9063 15.3498 12.0904 15.6254 12.3225 15.8575L12.4125 15.9475C13.3517 16.8875 13.9914 18.0847 14.2508 19.3879C14.5102 20.6911 14.3777 22.042 13.87 23.27L13.8025 23.43C13.3028 24.634 12.4577 25.663 11.3739 26.3874C10.2901 27.1117 9.01607 27.4988 7.7125 27.5C6.12 27.5 5 28.6175 5 30C5 31.3825 6.1175 32.5 7.5 32.5H7.67C8.98643 32.4997 10.2733 32.8901 11.3677 33.6217C12.4621 34.3534 13.3147 35.3934 13.8175 36.61L13.87 36.7325C14.3777 37.9605 14.5102 39.3114 14.2508 40.6146C13.9914 41.9178 13.3517 43.115 12.4125 44.055L12.3225 44.145C11.8537 44.6138 11.5904 45.2496 11.5904 45.9125C11.5904 46.5754 11.8537 47.2112 12.3225 47.68C12.7913 48.1488 13.4271 48.4121 14.09 48.4121C14.7529 48.4121 15.3887 48.1488 15.8575 47.68L15.9475 47.59C16.8875 46.6508 18.0847 46.0111 19.3879 45.7517C20.6911 45.4923 22.042 45.6248 23.27 46.1325L23.6275 46.2825C24.7741 46.7559 25.7543 47.5592 26.4437 48.5905C27.1332 49.6217 27.5008 50.8345 27.5 52.075V52.2875C27.5 53.8825 28.6175 55 30 55C31.3825 55 32.5 53.88 32.5 52.5V52.075C32.5 49.5375 34.0275 47.25 36.375 46.28L37.005 46.02C38.152 45.545 39.4142 45.4209 40.6317 45.6635C41.8493 45.906 42.9675 46.5042 43.845 47.3825L44.1425 47.68C44.3746 47.9121 44.6502 48.0962 44.9534 48.2219C45.2567 48.3475 45.5817 48.4121 45.91 48.4121C46.2383 48.4121 46.5633 48.3475 46.8666 48.2219C47.1698 48.0962 47.4454 47.9121 47.6775 47.68C47.9096 47.4479 48.0937 47.1723 48.2194 46.8691C48.345 46.5658 48.4096 46.2408 48.4096 45.9125C48.4096 45.5842 48.345 45.2592 48.2194 44.9559C48.0937 44.6527 47.9096 44.3771 47.6775 44.145L47.38 43.8475C45.5075 41.975 45.11 39.175 46.13 36.7325L46.1825 36.61C47.18 34.1725 49.455 32.5 52.0875 32.5H52.2875C53.8825 32.5 55 31.3825 55 30C55 28.6175 53.8825 27.5 52.5 27.5ZM20 32.5C19.337 32.5 18.7011 32.2366 18.2322 31.7678C17.7634 31.2989 17.5 30.663 17.5 30C17.5 29.337 17.7634 28.7011 18.2322 28.2322C18.7011 27.7634 19.337 27.5 20 27.5C20.663 27.5 21.2989 27.7634 21.7678 28.2322C22.2366 28.7011 22.5 29.337 22.5 30C22.5 30.663 22.2366 31.2989 21.7678 31.7678C21.2989 32.2366 20.663 32.5 20 32.5ZM32.5 41.25C31.837 41.25 31.2011 40.9866 30.7322 40.5178C30.2634 40.0489 30 39.413 30 38.75C30 38.087 30.2634 37.4511 30.7322 36.9822C31.2011 36.5134 31.837 36.25 32.5 36.25C33.163 36.25 33.7989 36.5134 34.2678 36.9822C34.7366 37.4511 35 38.087 35 38.75C35 39.413 34.7366 40.0489 34.2678 40.5178C33.7989 40.9866 33.163 41.25 32.5 41.25ZM35 30C34.3432 29.9998 33.6929 29.8703 33.0862 29.6188C32.4795 29.3673 31.9282 28.9988 31.4639 28.5343C30.9997 28.0698 30.6314 27.5183 30.3802 26.9115C30.129 26.3046 29.9998 25.6543 30 24.9975C30.0002 24.3407 30.1297 23.6904 30.3812 23.0837C30.6327 22.477 31.0012 21.9257 31.4657 21.4614C31.9302 20.9972 32.4817 20.6289 33.0885 20.3777C33.6954 20.1265 34.3457 19.9973 35.0025 19.9975C36.3289 19.9978 37.6009 20.5251 38.5386 21.4632C39.4762 22.4014 40.0028 23.6736 40.0025 25C40.0022 26.3264 39.4749 27.5984 38.5368 28.5361C37.5986 29.4737 36.3264 30.0003 35 30Z" fill="#3A6DAE" fill-opacity="0.9"/>
</svg>
