<svg width="60" height="60" viewBox="0 0 60 60" fill="none" xmlns="http://www.w3.org/2000/svg">
<path d="M35.0996 0C36.9801 0 38.4998 1.48941 38.5 3.33301C38.5 5.17676 36.9802 6.66699 35.0996 6.66699V17.4268C41.9951 19.5517 46.9999 25.8644 47 33.333V53.333C47 57.01 43.9507 59.9999 40.2002 60H19.7998C16.0493 59.9999 13 57.01 13 53.333V33.333C13.0001 25.8748 18.0049 19.5517 24.9004 17.4268V6.66699C23.0198 6.66699 21.5 5.17676 21.5 3.33301C21.5002 1.48941 23.0199 0 24.9004 0H35.0996ZM37.8477 29.4336C37.2646 28.8504 36.3129 28.8558 35.7217 29.4473C35.1458 30.0237 35.1279 30.9432 35.6689 31.5293L33.3613 33.8369C32.3622 33.184 31.1935 32.8372 30 32.8389C28.8066 32.8373 27.6387 33.1841 26.6396 33.8369L24.3447 31.542C24.8855 30.9559 24.8676 30.0375 24.292 29.4609C23.701 28.8702 22.7484 28.8642 22.165 29.4473C21.8135 29.799 21.6778 30.2846 21.7539 30.7441C21.2873 30.6596 20.7915 30.795 20.4336 31.1523C19.8503 31.7357 19.8568 32.6873 20.4473 33.2783C21.0239 33.855 21.943 33.872 22.5293 33.3311L24.8369 35.6387C24.2062 36.6053 23.8389 37.7598 23.8389 39C23.8389 40.2401 24.2063 41.3938 24.8369 42.3604L22.542 44.6553C21.9559 44.1145 21.0375 44.1323 20.4609 44.708C19.8702 45.299 19.8645 46.2516 20.4473 46.835C20.799 47.1865 21.2846 47.3222 21.7441 47.2461C21.6596 47.7126 21.7951 48.2085 22.1523 48.5664C22.7357 49.1497 23.6873 49.1432 24.2783 48.5527C24.8547 47.9762 24.8726 47.0571 24.332 46.4707L26.5693 44.2334V45.7578C27.5364 46.5514 28.749 46.985 30 46.9834C31.2512 46.9851 32.4645 46.5516 33.4316 45.7578V44.2334L35.6553 46.457C35.1142 47.0434 35.1324 47.9627 35.709 48.5391C36.299 49.13 37.2517 49.136 37.835 48.5527C38.1865 48.2012 38.3222 47.7156 38.2461 47.2559C38.7127 47.3407 39.2085 47.2053 39.5664 46.8477C40.1494 46.2644 40.1441 45.3132 39.5527 44.7217C38.9764 44.1458 38.0569 44.1271 37.4707 44.668L35.1631 42.3604C35.7935 41.3938 36.1611 40.2401 36.1611 39C36.1611 37.7599 35.7935 36.6062 35.1631 35.6396L37.458 33.3447C38.0443 33.8858 38.9627 33.8684 39.5391 33.292C40.1303 32.7023 40.1361 31.7486 39.5527 31.165C39.2012 30.8137 38.7157 30.6778 38.2559 30.7539C38.3404 30.2873 38.2055 29.7915 37.8477 29.4336ZM31.6807 38.9668C31.8373 38.9635 31.993 38.9922 32.1387 39.0498C32.2843 39.1075 32.4174 39.1932 32.5293 39.3027C32.6413 39.4124 32.7303 39.544 32.791 39.6885C32.8517 39.8329 32.8828 39.9879 32.8828 40.1445C32.8828 40.3012 32.8517 40.4562 32.791 40.6006C32.7303 40.745 32.6412 40.8757 32.5293 40.9854C32.4173 41.095 32.2844 41.1816 32.1387 41.2393C31.9931 41.2969 31.8372 41.3255 31.6807 41.3223C31.3685 41.3222 31.0694 41.1973 30.8486 40.9766C30.6279 40.7558 30.5039 40.4567 30.5039 40.1445C30.5039 39.8323 30.6278 39.5323 30.8486 39.3115C31.0694 39.091 31.3686 38.9669 31.6807 38.9668ZM28.3193 38.9482C28.9692 38.9483 29.4959 39.4769 29.4961 40.127C29.4961 40.7771 28.969 41.3046 28.3193 41.3047C28.007 41.3047 27.7072 41.1807 27.4863 40.96C27.2655 40.7391 27.1417 40.4393 27.1416 40.127C27.1416 39.8146 27.2655 39.5149 27.4863 39.2939C27.7073 39.073 28.0069 38.9482 28.3193 38.9482Z" fill="#3A6DAE" fill-opacity="0.9"/>
</svg>
