<svg width="60" height="60" viewBox="0 0 60 60" fill="none" xmlns="http://www.w3.org/2000/svg">
<path d="M24.285 31.5901C22.8836 32.9923 21.1232 33.9816 19.1968 34.4497C17.2704 34.9178 15.2524 34.8465 13.3638 34.2438C11.4752 33.641 9.78896 32.53 8.48989 31.0325C7.19083 29.535 6.32906 27.7088 5.99902 25.754H27.2967C26.9231 27.9649 25.8705 30.0046 24.285 31.5901ZM27.2967 22.1544H6.00142C6.42546 19.6368 7.72777 17.3508 9.67723 15.7022C11.6267 14.0537 14.0972 13.1491 16.6503 13.1491C19.2033 13.1491 21.6738 14.0537 23.6233 15.7022C25.5728 17.3508 26.8727 19.6368 27.2967 22.1544ZM36.4637 18.2452C37.1276 18.933 37.9219 19.4816 38.8001 19.8591C39.6784 20.2366 40.623 20.4354 41.5789 20.444C42.5348 20.4525 43.4829 20.2706 44.3677 19.9088C45.2525 19.547 46.0565 19.0126 46.7326 18.3368C47.4087 17.6611 47.9435 16.8574 48.3056 15.9727C48.6678 15.088 48.8502 14.1401 48.8421 13.1842C48.8341 12.2283 48.6357 11.2835 48.2586 10.4051C47.8815 9.5267 47.3332 8.73218 46.6458 8.06791C45.2921 6.7358 43.4669 5.99255 41.5677 6.00006C39.6685 6.00756 37.8493 6.76523 36.5062 8.108C35.1631 9.45078 34.405 11.2699 34.397 13.1691C34.3891 15.0682 35.1319 16.8936 36.4637 18.2476M51.2173 30.1815C52.8981 31.8643 53.8422 34.1455 53.8422 36.524C53.8422 38.9025 52.8981 41.1837 51.2173 42.8665L48.7528 45.331V45.3238L46.9961 44.9879L46.929 44.9687C46.8134 44.9409 46.699 44.9089 46.5858 44.8727C46.1067 44.716 45.6393 44.526 45.1867 44.304C43.9869 43.728 42.3071 42.6937 40.5073 40.8939C38.7075 39.0941 37.6732 37.4119 37.0948 36.212C36.8769 35.758 36.6877 35.2908 36.5285 34.813C36.4841 34.6788 36.4457 34.5427 36.4133 34.405L36.0749 32.646H36.0677L38.5323 30.1815C40.2151 28.5007 42.4963 27.5566 44.8748 27.5566C47.2532 27.5566 49.5345 28.5007 51.2173 30.1815ZM33.0297 35.6841L33.1017 35.9097C33.2456 36.3728 33.4856 37.0112 33.8528 37.7743C34.5895 39.3029 35.8494 41.3259 37.9611 43.4377C40.0729 45.5494 42.0959 46.8093 43.6245 47.546C44.2987 47.8744 44.9976 48.1496 45.7147 48.3691L42.7606 51.3232C41.0721 52.9744 38.8005 53.8931 36.4389 53.8799C34.0772 53.8667 31.8161 52.9226 30.1461 51.2527C28.4761 49.5827 27.5321 47.3216 27.5189 44.9599C27.5057 42.5983 28.4244 40.3267 30.0756 38.6382L33.0297 35.6841Z" fill="#3A6DAE" fill-opacity="0.9"/>
</svg>
