<svg width="20" height="20" viewBox="0 0 20 20" fill="none" xmlns="http://www.w3.org/2000/svg">
<path d="M3.33301 3.75H16.666C17.3526 3.75 17.916 4.31345 17.916 5V15C17.9158 15.6864 17.3525 16.25 16.666 16.25H3.33301C2.64657 16.25 2.08319 15.6864 2.08301 15L2.09082 5L2.09766 4.87207C2.16145 4.24252 2.69191 3.75 3.33301 3.75ZM16.2129 5.15527C16.0639 5.12458 15.9098 5.12389 15.7607 5.1543C15.618 5.18345 15.4824 5.24047 15.3613 5.32129L9.99902 8.6748L4.63672 5.32129H4.63574C4.51487 5.24082 4.37971 5.18334 4.2373 5.1543C4.08844 5.12398 3.93494 5.12466 3.78613 5.15527C3.63709 5.18599 3.49505 5.24612 3.37012 5.33301C3.24517 5.41991 3.13926 5.53207 3.05859 5.66113C2.97811 5.79001 2.92474 5.93385 2.90137 6.08398C2.878 6.23438 2.88515 6.38868 2.92285 6.53613C2.96057 6.68343 3.02752 6.82178 3.12012 6.94238C3.21271 7.06297 3.32937 7.16283 3.46191 7.2373L9.33691 10.9111C9.73869 11.1622 10.2603 11.1622 10.6621 10.9111L16.5361 7.2373L16.5371 7.23828C16.6696 7.16386 16.7853 7.06289 16.8779 6.94238C16.9705 6.82176 17.0385 6.68346 17.0762 6.53613C17.1139 6.38868 17.121 6.23438 17.0977 6.08398C17.0743 5.93389 17.0209 5.78998 16.9404 5.66113C16.8598 5.53207 16.7529 5.41991 16.6279 5.33301C16.5031 5.24628 16.3618 5.18596 16.2129 5.15527Z" fill="#B3B7C2" stroke="#B3B7C2" stroke-width="0.833333"/>
</svg>
