<svg width="1360" height="68" viewBox="0 0 1360 68" fill="none" xmlns="http://www.w3.org/2000/svg">
<rect y="50" width="1360" height="18" rx="9" fill="#E6EFF7"/>
<g clip-path="url(#clip0_27_749)">
<path d="M198 25.5C198 11.4167 209.417 0 223.5 0H1022.21C1037.56 0 1050 12.4417 1050 27.7894V51V70C1050 86.5685 1036.57 100 1020 100H228C211.431 100 198 86.5685 198 70V51V25.5Z" fill="#E6EFF7"/>
<path d="M198 25.5C199 50 184 47.5 180 51H198V25.5Z" fill="#E6EFF7"/>
<path d="M1050.05 25.5C1050.02 26.2909 1050 27.0537 1050 27.7894C1050 28.532 1050.02 29.2471 1050.05 29.9358C1050.95 49.7009 1064.31 47.727 1068.05 51C1058.11 51 1050.05 42.9411 1050.05 33V29.9358V25.5Z" fill="#E6EFF7"/>
<path d="M1050.05 29.9358C1050.02 29.2471 1050 28.532 1050 27.7894V51H1068.05C1058.11 51 1050.05 42.9411 1050.05 33V29.9358Z" fill="#E6EFF7"/>
</g>
<defs>
<clipPath id="clip0_27_749">
<rect width="888" height="58" fill="white" transform="translate(180)"/>
</clipPath>
</defs>
</svg>
