<svg width="25" height="25" viewBox="0 0 25 25" fill="none" xmlns="http://www.w3.org/2000/svg">
<g clip-path="url(#clip0_27_348)">
<path d="M15.1855 14.543C15.6087 14.0208 15.8908 13.7597 16.0319 13.7597C16.173 13.7597 16.7019 13.9966 17.6188 14.4703C18.5357 14.944 19.0213 15.2293 19.0755 15.3262C19.0972 15.3801 19.1081 15.4608 19.1081 15.5685C19.1081 15.9238 19.0158 16.3329 18.8314 16.7959C18.6578 17.2158 18.2726 17.5684 17.6758 17.8537C17.079 18.139 16.5256 18.2817 16.0156 18.2817C15.3971 18.2817 14.3663 17.9479 12.9232 17.2804C11.8598 16.7959 10.9375 16.1606 10.1562 15.3747C9.375 14.5887 8.57205 13.5928 7.7474 12.387C6.96615 11.2349 6.58095 10.1906 6.5918 9.25388V9.12468C6.62435 8.14492 7.02582 7.29436 7.79622 6.573C8.05664 6.33613 8.33876 6.2177 8.64258 6.2177C8.70768 6.2177 8.80534 6.22578 8.93555 6.24193C9.06575 6.25808 9.16884 6.26615 9.24479 6.26615C9.45096 6.26615 9.59473 6.30114 9.67611 6.37112C9.75749 6.44111 9.84158 6.58915 9.92839 6.81525C10.0152 7.03058 10.1942 7.50431 10.4655 8.23643C10.7368 8.96856 10.8724 9.37231 10.8724 9.44767C10.8724 9.67377 10.6852 9.98331 10.3109 10.3763C9.93652 10.7693 9.74935 11.0196 9.74935 11.1273C9.74935 11.2026 9.77648 11.2834 9.83073 11.3695C10.1997 12.1555 10.753 12.893 11.4909 13.582C12.0985 14.1527 12.9178 14.6964 13.9486 15.2132C14.0788 15.2885 14.1981 15.3262 14.3066 15.3262C14.4694 15.3262 14.7624 15.0651 15.1855 14.543ZM7.11263 20.6395C8.82704 21.7593 10.6988 22.3191 12.7279 22.3191C14.1059 22.3191 15.427 22.05 16.6911 21.5116C17.9552 20.9733 19.043 20.2519 19.9544 19.3475C20.8659 18.4432 21.5929 17.3638 22.1354 16.1095C22.6779 14.8552 22.9492 13.5444 22.9492 12.177C22.9492 10.8096 22.6779 9.49882 22.1354 8.24451C21.5929 6.9902 20.8659 5.91085 19.9544 5.00646C19.043 4.10207 17.9552 3.38071 16.6911 2.84238C15.427 2.30405 14.1059 2.03488 12.7279 2.03488C11.3498 2.03488 10.0288 2.30405 8.76465 2.84238C7.50054 3.38071 6.41276 4.10207 5.5013 5.00646C4.58984 5.91085 3.86285 6.9902 3.32031 8.24451C2.77778 9.49882 2.50651 10.8096 2.50651 12.177C2.50651 14.3626 3.15755 16.3437 4.45964 18.1202L3.17383 21.8831L7.11263 20.6395ZM7.96712 0.968992C9.48079 0.322997 11.0677 0 12.7279 0C14.388 0 15.9749 0.322997 17.4886 0.968992C19.0023 1.61499 20.3071 2.4817 21.403 3.56912C22.4989 4.65655 23.3724 5.95123 24.0234 7.45317C24.6745 8.9551 25 10.5297 25 12.177C25 13.8243 24.6745 15.3989 24.0234 16.9008C23.3724 18.4028 22.4989 19.6975 21.403 20.7849C20.3071 21.8723 19.0023 22.739 17.4886 23.385C15.9749 24.031 14.388 24.354 12.7279 24.354C10.612 24.354 8.63173 23.848 6.78711 22.8359L0 25L2.21354 18.4593C1.04167 16.5429 0.455729 14.4488 0.455729 12.177C0.455729 10.5297 0.78125 8.9551 1.43229 7.45317C2.08333 5.95123 2.95681 4.65655 4.05273 3.56912C5.14865 2.4817 6.45345 1.61499 7.96712 0.968992Z" fill="#6A98D2"/>
</g>
<defs>
<clipPath id="clip0_27_348">
<rect width="25" height="25" fill="white"/>
</clipPath>
</defs>
</svg>
