<svg width="25" height="25" viewBox="0 0 25 25" fill="none" xmlns="http://www.w3.org/2000/svg">
<path d="M13.4805 9.66466C12.2273 10.1592 9.72136 11.183 5.96261 12.736C5.35148 12.9658 5.03173 13.1907 5.00337 13.4107C4.95437 13.7822 5.4456 13.9289 6.11475 14.1281L6.39582 14.2136C7.05336 14.4165 7.94041 14.6536 8.40069 14.6634C8.81842 14.6716 9.28429 14.5086 9.79829 14.1745C13.3104 11.9257 15.1231 10.7895 15.2366 10.7659C15.3178 10.7487 15.4287 10.7267 15.5035 10.7903C15.5795 10.8538 15.5718 10.9736 15.5641 11.0066C15.5151 11.2034 13.5863 12.9035 12.5884 13.7822C12.2927 14.0462 11.9991 14.3122 11.7078 14.5803C11.0966 15.1388 10.6376 15.558 11.7335 16.2425C12.8436 16.9367 13.964 17.6284 15.0471 18.3605C15.5808 18.7223 16.0604 19.045 16.6535 18.9948C16.9978 18.9643 17.3536 18.6575 17.5341 17.7409C17.9622 15.5776 18.8015 10.8868 18.9949 8.95335C19.0061 8.79296 18.9988 8.63189 18.973 8.47303C18.9578 8.34517 18.8924 8.22739 18.7899 8.14304C18.6352 8.02326 18.3967 7.99882 18.2909 8.00004C17.8062 8.0086 17.0622 8.25303 13.4818 9.66466" fill="#6A98D2"/>
<path d="M23.1665 12.5C23.1665 6.60896 18.391 1.8335 12.5 1.8335C6.60896 1.8335 1.8335 6.60896 1.8335 12.5C1.8335 18.391 6.60896 23.1665 12.5 23.1665V25C5.59644 25 0 19.4036 0 12.5C0 5.59644 5.59644 0 12.5 0C19.4036 0 25 5.59644 25 12.5C25 19.4036 19.4036 25 12.5 25V23.1665C18.391 23.1665 23.1665 18.391 23.1665 12.5Z" fill="#6A98D2"/>
</svg>
