<svg width="80" height="80" viewBox="0 0 80 80" fill="none" xmlns="http://www.w3.org/2000/svg">
<path d="M60.166 72.9668C59.8576 73.2758 59.4913 73.521 59.0881 73.6883C58.6849 73.8555 58.2526 73.9416 57.816 73.9416C57.3795 73.9416 56.9472 73.8555 56.5439 73.6883C56.1407 73.521 55.7744 73.2758 55.466 72.9668L48.3994 65.9002C48.0907 65.5916 47.8459 65.2252 47.6789 64.822C47.5119 64.4188 47.4259 63.9866 47.4259 63.5502C47.4259 63.1137 47.5119 62.6816 47.6789 62.2783C47.8459 61.8751 48.0907 61.5088 48.3994 61.2002C49.0226 60.5769 49.8679 60.2268 50.7494 60.2268C51.1858 60.2268 51.618 60.3127 52.0212 60.4797C52.4244 60.6468 52.7907 60.8916 53.0994 61.2002L57.7994 65.9002L69.5993 54.1002C69.908 53.7916 70.2743 53.5468 70.6775 53.3797C71.0808 53.2127 71.5129 53.1268 71.9493 53.1268C72.3858 53.1268 72.8179 53.2127 73.2212 53.3797C73.6244 53.5468 73.9907 53.7916 74.2994 54.1002C74.608 54.4088 74.8528 54.7751 75.0198 55.1784C75.1868 55.5816 75.2728 56.0137 75.2728 56.4502C75.2728 56.8866 75.1868 57.3188 75.0198 57.722C74.8528 58.1252 74.608 58.4916 74.2994 58.8002L60.166 72.9668ZM40.266 68.6668H13.3327C9.66602 68.6668 6.66602 65.6668 6.66602 62.0002V22.0002C6.66602 18.3335 9.66602 15.3335 13.3327 15.3335H66.666C70.3327 15.3335 73.3327 18.3335 73.3327 22.0002V44.2668C69.7777 42.5756 65.8525 41.8121 61.9228 42.0473C57.9931 42.2825 54.187 43.5089 50.8591 45.6121C47.5313 47.7153 44.7902 50.6268 42.8913 54.0752C40.9924 57.5237 39.9975 61.3968 39.9994 65.3335C39.9994 66.4668 40.0993 67.5668 40.266 68.6668ZM38.2327 44.2335C39.2994 44.9002 40.6993 44.9002 41.766 44.2335L65.3327 29.5002C65.6669 29.3125 65.9596 29.059 66.1931 28.755C66.4265 28.451 66.5958 28.1028 66.6908 27.7314C66.7857 27.36 66.8043 26.9733 66.7455 26.5945C66.6867 26.2158 66.5516 25.8529 66.3484 25.5278C66.1453 25.2028 65.8783 24.9223 65.5636 24.7035C65.2489 24.4846 64.8931 24.3319 64.5177 24.2545C64.1423 24.1771 63.7551 24.1767 63.3795 24.2533C63.0039 24.3299 62.6478 24.4819 62.3327 24.7002L39.9994 38.6668L17.666 24.7002C17.3509 24.4819 16.9948 24.3299 16.6192 24.2533C16.2436 24.1767 15.8564 24.1771 15.481 24.2545C15.1056 24.3319 14.7498 24.4846 14.4351 24.7035C14.1204 24.9223 13.8534 25.2028 13.6503 25.5278C13.4471 25.8529 13.312 26.2158 13.2532 26.5945C13.1944 26.9733 13.213 27.36 13.3079 27.7314C13.4029 28.1028 13.5722 28.451 13.8056 28.755C14.0391 29.059 14.3318 29.3125 14.666 29.5002L38.2327 44.2335Z" fill="#3A6DAE" fill-opacity="0.9"/>
</svg>
