<svg width="80" height="80" viewBox="0 0 80 80" fill="none" xmlns="http://www.w3.org/2000/svg">
<path d="M27.1111 59.3333H31.9444V52.8889H38.3889V48.0555H31.9444V41.6111H27.1111V48.0555H20.6667V52.8889H27.1111V59.3333ZM43.2222 56.9167H59.3333V52.0833H43.2222V56.9167ZM43.2222 48.8611H59.3333V44.0278H43.2222V48.8611ZM21.4722 30.9778H37.5833V26.1444H21.4722V30.9778ZM17.4444 69C15.6722 69 14.1556 68.3695 12.8947 67.1086C11.6337 65.8476 11.0021 64.3299 11 62.5555V17.4444C11 15.6722 11.6316 14.1556 12.8947 12.8947C14.1578 11.6337 15.6744 11.0021 17.4444 11H62.5555C64.3278 11 65.8454 11.6316 67.1086 12.8947C68.3717 14.1578 69.0021 15.6744 69 17.4444V62.5555C69 64.3278 68.3695 65.8454 67.1086 67.1086C65.8476 68.3717 64.3299 69.0021 62.5555 69H17.4444ZM46.7667 36.6167L51.2778 32.1056L55.7889 36.6167L59.1722 33.2333L54.6611 28.5611L59.1722 24.05L55.7889 20.6667L51.2778 25.1778L46.7667 20.6667L43.3833 24.05L47.8944 28.5611L43.3833 33.2333L46.7667 36.6167Z" fill="#3A6DAE" fill-opacity="0.9"/>
</svg>
