<svg width="80" height="80" viewBox="0 0 80 80" fill="none" xmlns="http://www.w3.org/2000/svg">
<path d="M71.5 16H8.5C6.56734 16 5 17.5673 5 19.5V61.5C5 63.4327 6.56734 65 8.5 65H71.5C73.4327 65 75 63.4327 75 61.5V19.5C75 17.5673 73.4327 16 71.5 16ZM24.25 48.3619V50.125C24.25 50.6084 23.8584 51 23.375 51H21.625C21.1416 51 20.75 50.6084 20.75 50.125V48.3433C19.5152 48.2798 18.3142 47.8489 17.3189 47.1019C16.8923 46.7814 16.8705 46.1427 17.2566 45.7741L18.5417 44.548C18.8447 44.2592 19.2953 44.2461 19.6497 44.4681C20.073 44.7328 20.5531 44.875 21.0519 44.875H24.1264C24.8373 44.875 25.417 44.2275 25.417 43.4323C25.417 42.7816 25.0222 42.2084 24.4578 42.04L19.5359 40.5634C17.5027 39.9531 16.0819 38.0019 16.0819 35.8177C16.0819 33.1358 18.1655 30.957 20.7489 30.8881V29.125C20.7489 28.6416 21.1405 28.25 21.6239 28.25H23.3739C23.8573 28.25 24.2489 28.6416 24.2489 29.125V30.9067C25.4838 30.9702 26.6847 31.4 27.68 32.1481C28.1066 32.4686 28.1284 33.1073 27.7423 33.4759L26.4572 34.702C26.1542 34.9908 25.7036 35.0039 25.3492 34.7819C24.9259 34.5161 24.4458 34.375 23.947 34.375H20.8725C20.1616 34.375 19.5819 35.0225 19.5819 35.8177C19.5819 36.4684 19.9767 37.0416 20.5411 37.21L25.463 38.6866C27.4963 39.2969 28.917 41.2481 28.917 43.4323C28.917 46.1153 26.8334 48.293 24.25 48.3619ZM50.5 46.625C50.5 47.1084 50.1084 47.5 49.625 47.5H37.375C36.8916 47.5 36.5 47.1084 36.5 46.625V44.875C36.5 44.3916 36.8916 44 37.375 44H49.625C50.1084 44 50.5 44.3916 50.5 44.875V46.625ZM68 46.625C68 47.1084 67.6084 47.5 67.125 47.5H58.375C57.8916 47.5 57.5 47.1084 57.5 46.625V44.875C57.5 44.3916 57.8916 44 58.375 44H67.125C67.6084 44 68 44.3916 68 44.875V46.625ZM68 36.125C68 36.6084 67.6084 37 67.125 37H37.375C36.8916 37 36.5 36.6084 36.5 36.125V34.375C36.5 33.8916 36.8916 33.5 37.375 33.5H67.125C67.6084 33.5 68 33.8916 68 34.375V36.125Z" fill="#3A6DAE" fill-opacity="0.9"/>
</svg>
