<svg width="80" height="80" viewBox="0 0 80 80" fill="none" xmlns="http://www.w3.org/2000/svg">
<path d="M44.75 24.0625V6H18.1875C16.4211 6 15 7.42109 15 9.1875V70.8125C15 72.5789 16.4211 74 18.1875 74H62.8125C64.5789 74 66 72.5789 66 70.8125V27.25H47.9375C46.1844 27.25 44.75 25.8156 44.75 24.0625ZM23.5 15.5625C23.5 14.9755 23.9755 14.5 24.5625 14.5H35.1875C35.7745 14.5 36.25 14.9755 36.25 15.5625V17.6875C36.25 18.2745 35.7745 18.75 35.1875 18.75H24.5625C23.9755 18.75 23.5 18.2745 23.5 17.6875V15.5625ZM23.5 24.0625C23.5 23.4755 23.9755 23 24.5625 23H35.1875C35.7745 23 36.25 23.4755 36.25 24.0625V26.1875C36.25 26.7745 35.7745 27.25 35.1875 27.25H24.5625C23.9755 27.25 23.5 26.7745 23.5 26.1875V24.0625ZM49.1076 57H55.375C56.5491 57 57.5 57.9509 57.5 59.125C57.5 60.2991 56.5491 61.25 55.375 61.25H49.1076C46.9228 61.25 44.9545 60.0361 43.9757 58.0811C43.5839 57.2948 42.9013 57.2152 42.625 57.2152C42.3487 57.2152 41.6661 57.2935 41.2942 58.0373L40.2755 60.0746C40.0991 60.4276 39.8278 60.7244 39.4921 60.9317C39.1564 61.1391 38.7696 61.2489 38.375 61.2487C38.3245 61.2487 38.2754 61.246 38.2236 61.242C37.367 61.1823 36.6298 60.6112 36.3602 59.7957L34.125 53.094L32.7159 57.328C31.9336 59.6735 29.7435 61.25 27.2705 61.25H25.625C24.4509 61.25 23.5 60.2991 23.5 59.125C23.5 57.9509 24.4509 57 25.625 57H27.2705C27.912 57 28.4805 56.5909 28.6837 55.9827L31.0995 48.7258C31.5378 47.4229 32.7517 46.5463 34.125 46.5463C35.4983 46.5463 36.7122 47.4216 37.1491 48.7258L38.9926 54.2561C41.6183 52.1059 46.1711 52.9678 47.7582 56.1367C48.0265 56.6759 48.5498 57 49.1076 57ZM65.0703 19.9453L52.068 6.92969C51.4703 6.33203 50.6602 6 49.8102 6H49V23H66V22.1898C66 21.3531 65.668 20.543 65.0703 19.9453Z" fill="#3A6DAE" fill-opacity="0.9"/>
</svg>
