<svg width="80" height="80" viewBox="0 0 80 80" fill="none" xmlns="http://www.w3.org/2000/svg">
<path d="M61.8926 67.1992C61.6863 70.4605 58.979 72.9999 55.7178 73H24.0322C20.771 72.9999 18.0637 70.4605 17.8574 67.1992L15.125 23.5H64.625L61.8926 67.1992ZM41.2373 32.7627C40.5539 32.0793 39.4461 32.0793 38.7627 32.7627L27.626 43.8994C26.9426 44.5828 26.9426 45.6906 27.626 46.374C28.3094 47.0574 29.4172 47.0574 30.1006 46.374L38.25 38.2246V58C38.25 58.9665 39.0335 59.75 40 59.75C40.9665 59.75 41.75 58.9665 41.75 58V38.2246L49.8994 46.374C50.5828 47.0574 51.6906 47.0574 52.374 46.374C53.0574 45.6906 53.0574 44.5828 52.374 43.8994L41.2373 32.7627ZM47.6348 7C49.1945 7 50.6261 7.87626 51.3223 9.28125L52.25 11.125H64.625C66.9066 11.125 68.75 12.9684 68.75 15.25C68.75 17.5316 66.9066 19.375 64.625 19.375H15.125C12.8434 19.375 11 17.5316 11 15.25C11 12.9684 12.8434 11.125 15.125 11.125H27.5L28.4277 9.28125C29.1239 7.87626 30.5555 7 32.1152 7H47.6348Z" fill="#3A6DAE" fill-opacity="0.9"/>
</svg>
