<?xml version="1.0" encoding="utf-8"?>
<!-- Generator: Adobe Illustrator 24.3.0, SVG Export Plug-In . SVG Version: 6.00 Build 0)  -->
<svg version="1.1" id="Layer_1" xmlns="http://www.w3.org/2000/svg" xmlns:xlink="http://www.w3.org/1999/xlink" x="0px" y="0px"
	 viewBox="0 0 117 90" style="enable-background:new 0 0 117 90;" xml:space="preserve">
<style type="text/css">
	.st0{clip-path:url(#SVGID_2_);}
	.st1{fill:none;stroke:#93AFD3;stroke-width:2;stroke-dasharray:8,8;}
	.st2{clip-path:url(#SVGID_4_);}
	.st3{fill:#FFFFFF;}
	.st4{fill:#93AFD3;}
</style>
<g>
	<g>
		<defs>
			<rect id="SVGID_1_" width="117" height="90"/>
		</defs>
		<clipPath id="SVGID_2_">
			<use xlink:href="#SVGID_1_"  style="overflow:visible;"/>
		</clipPath>
		<g class="st0">
			<path class="st1" d="M117,0c0,0-12.6,33.8-28,50C63.2,77.2,0,86,0,86"/>
			<g>
				<g>
					<defs>
						
							<rect id="SVGID_3_" x="1.7" y="75.8" transform="matrix(0.9919 -0.1269 0.1269 0.9919 -10.4446 1.6465)" width="12" height="14"/>
					</defs>
					<clipPath id="SVGID_4_">
						<use xlink:href="#SVGID_3_"  style="overflow:visible;"/>
					</clipPath>
					<g class="st2">
						
							<rect x="1.7" y="75.8" transform="matrix(0.9919 -0.1269 0.1269 0.9919 -10.4446 1.6465)" class="st3" width="12" height="14"/>
						<path class="st4" d="M3.7,83.3l9.2-7l1.5,11.5L3.7,83.3z M8.7,82.6l0.1,1l-1.2,0.2l-0.1-1l-0.1-1l1.2-0.2L8.7,82.6z"/>
					</g>
				</g>
			</g>
		</g>
	</g>
</g>
</svg>
