<svg width="28" height="28" viewBox="0 0 28 28" fill="none" xmlns="http://www.w3.org/2000/svg">
<path d="M22.9323 21.2552C23.1997 20.6111 23.3333 19.9974 23.3333 19.4141C23.3333 19.2804 23.3212 19.1832 23.2969 19.1224C23.2604 19.0252 23.0265 18.8459 22.5951 18.5846C22.1636 18.3233 21.6259 18.0226 20.9818 17.6823L20.0156 17.1536C19.9549 17.1172 19.8394 17.0382 19.6693 16.9167C19.4991 16.7951 19.3472 16.704 19.2135 16.6432C19.0799 16.5825 18.9523 16.5521 18.8307 16.5521C18.612 16.5521 18.3264 16.7496 17.974 17.1445C17.6215 17.5395 17.2752 17.9375 16.9349 18.3385C16.5946 18.7396 16.3273 18.9401 16.1328 18.9401C16.0477 18.9401 15.9475 18.9188 15.832 18.8763C15.7166 18.8338 15.6224 18.7943 15.5495 18.7578C15.4766 18.7214 15.3733 18.6636 15.2396 18.5846C15.1059 18.5056 15.0208 18.454 14.9844 18.4297C13.7812 17.7613 12.7452 16.9926 11.8763 16.1237C11.0074 15.2548 10.2387 14.2187 9.57031 13.0156C9.54601 12.9792 9.49436 12.8941 9.41536 12.7604C9.33637 12.6267 9.27865 12.5234 9.24219 12.4505C9.20573 12.3776 9.16623 12.2834 9.1237 12.168C9.08116 12.0525 9.0599 11.9523 9.0599 11.8672C9.0599 11.7092 9.18446 11.5056 9.43359 11.2565C9.68272 11.0074 9.95616 10.7734 10.2539 10.5547C10.5516 10.3359 10.8251 10.0959 11.0742 9.83463C11.3233 9.57335 11.4479 9.35156 11.4479 9.16927C11.4479 9.04774 11.4175 8.92014 11.3568 8.78646C11.296 8.65278 11.2049 8.50087 11.0833 8.33073C10.9618 8.16059 10.8828 8.04514 10.8464 7.98437C10.8099 7.91146 10.7187 7.73828 10.5729 7.46484C10.4271 7.19141 10.2752 6.91493 10.1172 6.63542C9.9592 6.3559 9.79818 6.06727 9.63411 5.76953C9.47005 5.47179 9.31814 5.22569 9.17838 5.03125C9.03863 4.83681 8.93837 4.72743 8.8776 4.70312C8.81684 4.67882 8.71962 4.66667 8.58594 4.66667C8.0026 4.66667 7.38889 4.80035 6.74479 5.06771C6.18576 5.32292 5.69965 5.89713 5.28646 6.79036C4.87326 7.68359 4.66667 8.47656 4.66667 9.16927C4.66667 9.36371 4.68186 9.57031 4.71224 9.78906C4.74262 10.0078 4.773 10.1931 4.80339 10.3451C4.83377 10.497 4.88845 10.6975 4.96745 10.9466C5.04644 11.1957 5.1072 11.375 5.14974 11.4844C5.19227 11.5937 5.26823 11.7943 5.3776 12.0859C5.48698 12.3776 5.55382 12.5599 5.57812 12.6328C6.30729 14.6259 7.62283 16.5733 9.52474 18.4753C11.4266 20.3772 13.3741 21.6927 15.3672 22.4219C15.4401 22.4462 15.6224 22.513 15.9141 22.6224C16.2057 22.7318 16.4062 22.8077 16.5156 22.8503C16.625 22.8928 16.8043 22.9536 17.0534 23.0326C17.3025 23.1115 17.503 23.1662 17.6549 23.1966C17.8069 23.227 17.9922 23.2574 18.2109 23.2878C18.4297 23.3181 18.6363 23.3333 18.8307 23.3333C19.5234 23.3333 20.3164 23.1267 21.2096 22.7135C22.1029 22.3003 22.6771 21.8142 22.9323 21.2552ZM26.4596 1.54036C27.4865 2.56727 28 3.80382 28 5.25V22.75C28 24.1962 27.4865 25.4327 26.4596 26.4596C25.4327 27.4865 24.1962 28 22.75 28H5.25C3.80382 28 2.56727 27.4865 1.54036 26.4596C0.513455 25.4327 0 24.1962 0 22.75V5.25C0 3.80382 0.513455 2.56727 1.54036 1.54036C2.56727 0.513455 3.80382 0 5.25 0H22.75C24.1962 0 25.4327 0.513455 26.4596 1.54036Z" fill="#6A98D2"/>
</svg>
