<svg width="28" height="28" viewBox="0 0 28 28" fill="none" xmlns="http://www.w3.org/2000/svg">
<path d="M5.25 0H22.75C24.1962 0 25.4327 0.513455 26.4596 1.54036C27.4865 2.56727 28 3.80382 28 5.25V22.75C28 24.1962 27.4865 25.4327 26.4596 26.4596C25.4327 27.4865 24.1962 28 22.75 28H5.25C3.80382 28 2.56727 27.4865 1.54036 26.4596C0.513455 25.4327 0 24.1962 0 22.75V5.25C0 3.80382 0.513455 2.56727 1.54036 1.54036C2.56727 0.513455 3.80382 0 5.25 0ZM22.8229 20.4896C23.1632 20.1493 23.3333 19.7361 23.3333 19.25V11.3021C22.9566 11.7274 22.5677 12.0616 22.1667 12.3047C21.7535 12.572 20.9483 13.0885 19.7513 13.8542C18.5543 14.6198 17.6337 15.2214 16.9896 15.6589C15.7986 16.4974 14.8021 16.9167 14 16.9167C13.1979 16.9167 12.2014 16.4974 11.0104 15.6589C10.4514 15.27 9.59158 14.7079 8.43099 13.9727C7.2704 13.2374 6.40451 12.6753 5.83333 12.2865C5.6875 12.1892 5.48698 12.0252 5.23177 11.7943C4.97656 11.5634 4.78819 11.3993 4.66667 11.3021V19.25C4.66667 19.7361 4.83681 20.1493 5.17708 20.4896C5.51736 20.8299 5.93056 21 6.41667 21H21.5833C22.0694 21 22.4826 20.8299 22.8229 20.4896ZM22.7591 10.1445C23.1419 9.6645 23.3333 9.21788 23.3333 8.80469C23.3333 8.30642 23.1662 7.88108 22.832 7.52865C22.4978 7.17622 22.0816 7 21.5833 7H6.41667C5.93056 7 5.51736 7.17014 5.17708 7.51042C4.83681 7.85069 4.66667 8.26389 4.66667 8.75C4.66667 9.19965 4.852 9.6645 5.22266 10.1445C5.59332 10.6246 6.00347 11.0165 6.45312 11.3203C7.02431 11.7092 7.85981 12.25 8.95963 12.9427C10.0595 13.6354 10.8464 14.1398 11.3203 14.4557C11.3568 14.48 11.4601 14.5499 11.6302 14.6654C11.8003 14.7808 11.928 14.8659 12.013 14.9206C12.0981 14.9753 12.2257 15.0543 12.3958 15.1576C12.566 15.2608 12.7088 15.3398 12.8242 15.3945C12.9397 15.4492 13.0703 15.5069 13.2161 15.5677C13.362 15.6285 13.4987 15.674 13.6263 15.7044C13.7539 15.7348 13.8785 15.75 14 15.75C14.1215 15.75 14.2461 15.7348 14.3737 15.7044C14.5013 15.674 14.638 15.6285 14.7839 15.5677C14.9297 15.5069 15.0603 15.4492 15.1758 15.3945C15.2912 15.3398 15.434 15.2608 15.6042 15.1576C15.7743 15.0543 15.9019 14.9753 15.987 14.9206C16.072 14.8659 16.1997 14.7808 16.3698 14.6654C16.5399 14.5499 16.6432 14.48 16.6797 14.4557L21.5469 11.2839C21.9722 11.0043 22.3763 10.6246 22.7591 10.1445Z" fill="#6A98D2"/>
</svg>
