<svg width="28" height="28" viewBox="0 0 28 28" fill="none" xmlns="http://www.w3.org/2000/svg">
<path d="M26 14V23.3333C26 24.0406 25.719 24.7189 25.219 25.219C24.7189 25.719 24.0406 26 23.3333 26H4.66667C3.95942 26 3.28115 25.719 2.78105 25.219C2.28095 24.7189 2 24.0406 2 23.3333V14H26ZM19.3333 2C19.687 2 20.0261 2.14048 20.2761 2.39052C20.5262 2.64057 20.6667 2.97971 20.6667 3.33333V4.66667H23.3333C24.0406 4.66667 24.7189 4.94762 25.219 5.44772C25.719 5.94781 26 6.62609 26 7.33333V11.3333H2V7.33333C2 6.62609 2.28095 5.94781 2.78105 5.44772C3.28115 4.94762 3.95942 4.66667 4.66667 4.66667H7.33333V3.33333C7.33333 2.97971 7.47381 2.64057 7.72386 2.39052C7.97391 2.14048 8.31305 2 8.66667 2C9.02029 2 9.35943 2.14048 9.60948 2.39052C9.85952 2.64057 10 2.97971 10 3.33333V4.66667H18V3.33333C18 2.97971 18.1405 2.64057 18.3905 2.39052C18.6406 2.14048 18.9797 2 19.3333 2Z" fill="#6A98D2"/>
</svg>
