<svg width="42" height="34" viewBox="0 0 42 34" fill="none" xmlns="http://www.w3.org/2000/svg">
<path d="M42 34H25.8675C24.2914 28.9116 23.5033 23.6381 23.5033 18.1796C23.5033 12.6286 24.9404 8.23401 27.8146 4.99591C30.7815 1.6653 35.1391 0 40.8874 0V7.77143C36.2517 7.77143 33.9338 10.5932 33.9338 16.2367V18.8735H42V34ZM18.4967 34H2.36424C0.788079 28.9116 0 23.6381 0 18.1796C0 12.6286 1.43709 8.23401 4.31126 4.99591C7.27814 1.6653 11.6358 0 17.3841 0V7.77143C12.7483 7.77143 10.4305 10.5932 10.4305 16.2367V18.8735H18.4967V34Z" fill="#E6EFF7"/>
</svg>
