<svg width="80" height="80" viewBox="0 0 80 80" fill="none" xmlns="http://www.w3.org/2000/svg">
<path d="M70.0003 20.0703C70.0103 19.5837 69.977 15.187 65.667 10.9537C61.4237 6.78699 57.1437 6.66699 56.667 6.66699H23.3203C22.5237 6.66699 18.3437 6.87699 14.2937 11.007C10.1203 15.2603 10.0003 19.5303 10.0003 20.0003V30.0003H6.66699V40.0003H10.0003V60.0003C10.0003 62.447 11.3537 64.577 13.3337 65.737V70.0003C13.3337 70.8844 13.6848 71.7322 14.31 72.3573C14.9351 72.9825 15.7829 73.3337 16.667 73.3337H20.0003C20.8844 73.3337 21.7322 72.9825 22.3573 72.3573C22.9825 71.7322 23.3337 70.8844 23.3337 70.0003V66.667H56.667V70.0003C56.667 70.8844 57.0182 71.7322 57.6433 72.3573C58.2684 72.9825 59.1163 73.3337 60.0003 73.3337H63.3337C64.2177 73.3337 65.0656 72.9825 65.6907 72.3573C66.3158 71.7322 66.667 70.8844 66.667 70.0003V65.7437C67.6783 65.1637 68.5189 64.3274 69.1041 63.3191C69.6893 62.3108 69.9984 61.1661 70.0003 60.0003V40.0003H73.3337V30.0003H70.0003V20.0703ZM30.0003 13.3337H50.0003V20.0003H30.0003V13.3337ZM21.667 60.0003C20.3405 59.9999 19.0684 59.4725 18.1308 58.5342C17.1931 57.5959 16.6665 56.3235 16.667 54.997C16.6674 53.6705 17.1948 52.3984 18.1331 51.4608C19.0714 50.5231 20.3438 49.9965 21.6703 49.997C22.9968 49.9974 24.2689 50.5248 25.2065 51.4631C26.1442 52.4014 26.6708 53.6738 26.6703 55.0003C26.6699 56.3268 26.1425 57.5989 25.2042 58.5365C24.2659 59.4742 22.9935 60.0008 21.667 60.0003ZM36.667 43.3337H16.667V26.667H36.667V43.3337ZM58.3337 60.0003C57.0071 59.9999 55.7351 59.4725 54.7974 58.5342C53.8598 57.5959 53.3332 56.3235 53.3337 54.997C53.3341 53.6705 53.8615 52.3984 54.7998 51.4608C55.7381 50.5231 57.0105 49.9965 58.337 49.997C59.6635 49.9974 60.9355 50.5248 61.8732 51.4631C62.8109 52.4014 63.3374 53.6738 63.337 55.0003C63.3365 56.3268 62.8092 57.5989 61.8709 58.5365C60.9326 59.4742 59.6602 60.0008 58.3337 60.0003ZM63.3337 43.3337H43.3337V26.667H63.3337V43.3337Z" fill="#3A6DAE" fill-opacity="0.9"/>
</svg>
