<svg width="80" height="80" viewBox="0 0 80 80" fill="none" xmlns="http://www.w3.org/2000/svg">
<path fill-rule="evenodd" clip-rule="evenodd" d="M65.7291 60C57.5491 39.572 48.0011 34.188 48.0011 24V12H50.0011C50.5315 12 51.0402 11.7893 51.4153 11.4142C51.7904 11.0391 52.0011 10.5304 52.0011 10V6C52.0011 5.46957 51.7904 4.96086 51.4153 4.58579C51.0402 4.21071 50.5315 4 50.0011 4H30.0011C29.4707 4 28.962 4.21071 28.5869 4.58579C28.2118 4.96086 28.0011 5.46957 28.0011 6V10C28.0011 10.5304 28.2118 11.0391 28.5869 11.4142C28.962 11.7893 29.4707 12 30.0011 12H32.0011V24C32.0011 34.188 22.4531 39.572 14.2731 60C11.6691 66.5 4.9811 76 40.0011 76C75.0211 76 68.3331 66.5 65.7291 60ZM59.2611 67.004C56.4531 67.844 50.8651 68.8 40.0011 68.8C29.1371 68.8 23.5491 67.844 20.7411 67.004C19.7451 66.708 19.3571 65.552 19.7091 64.492C20.5891 61.812 22.2491 57.18 25.3531 52.008C32.9371 39.372 40.8051 53.996 47.3531 53.996C53.9011 53.996 52.1051 47.752 54.6491 52.008C56.9888 55.9465 58.8818 60.1337 60.2931 64.492C60.6451 65.552 60.2571 66.704 59.2611 67.004Z" fill="#3A6DAE" fill-opacity="0.9"/>
</svg>
