<svg width="80" height="80" viewBox="0 0 80 80" fill="none" xmlns="http://www.w3.org/2000/svg">
<mask id="mask0_27_211" style="mask-type:luminance" maskUnits="userSpaceOnUse" x="4" y="6" width="71" height="68">
<path d="M66.6663 26.6675H13.333C10.5716 26.6675 8.33301 28.9061 8.33301 31.6675V65.0008C8.33301 67.7622 10.5716 70.0008 13.333 70.0008H66.6663C69.4278 70.0008 71.6663 67.7622 71.6663 65.0008V31.6675C71.6663 28.9061 69.4278 26.6675 66.6663 26.6675Z" fill="white" stroke="white" stroke-width="6.66667" stroke-linejoin="round"/>
<path d="M31.6663 13.3341H48.333V6.66748H31.6663V13.3341ZM49.9997 15.0008V26.6675H56.6663V15.0008H49.9997ZM29.9997 26.6675V15.0008H23.333V26.6675H29.9997ZM48.333 13.3341C48.775 13.3341 49.199 13.5097 49.5115 13.8223C49.8241 14.1349 49.9997 14.5588 49.9997 15.0008H56.6663C56.6663 12.7907 55.7884 10.6711 54.2256 9.10826C52.6628 7.54545 50.5431 6.66748 48.333 6.66748V13.3341ZM31.6663 6.66748C29.4562 6.66748 27.3366 7.54545 25.7738 9.10826C24.211 10.6711 23.333 12.7907 23.333 15.0008H29.9997C29.9997 14.5588 30.1753 14.1349 30.4878 13.8223C30.8004 13.5097 31.2243 13.3341 31.6663 13.3341V6.66748Z" fill="white"/>
<path d="M30 48.334H50M40 38.334V58.334" stroke="black" stroke-width="6.66667" stroke-linecap="round" stroke-linejoin="round"/>
</mask>
<g mask="url(#mask0_27_211)">
<path d="M0 0H80V80H0V0Z" fill="#3A6DAE" fill-opacity="0.9"/>
</g>
</svg>
