<svg width="80" height="80" viewBox="0 0 80 80" fill="none" xmlns="http://www.w3.org/2000/svg">
<path d="M39.9753 32.1341C27.6699 32.1341 25.2089 43.3565 25.2089 49.2139C22.2092 50.231 19.3862 51.709 16.8412 53.5946C14.7809 55.1591 13.4192 57.4719 13.0507 60.0326C12.6823 62.5933 13.3367 65.1961 14.8724 67.2781C16.4842 69.3034 18.8096 70.6356 21.3721 71.0017C23.9345 71.3677 26.5399 70.7399 28.6543 69.247C31.9911 66.9822 35.9429 65.7967 39.9753 65.8507C44.0077 65.7967 47.9594 66.9822 51.2962 69.247C53.324 70.8677 55.9099 71.6219 58.4911 71.3454C61.0723 71.0688 63.4397 69.7839 65.0782 67.7703C66.706 65.8474 67.5033 63.3566 67.2947 60.8459C67.0861 58.3351 65.8886 56.01 63.9658 54.3821L63.6015 54.0868L63.1093 53.5946C60.4842 51.8403 57.679 50.3717 54.7417 49.2139C54.7417 43.4058 52.2806 32.1341 39.9753 32.1341ZM13.2973 23.7664C11.5528 24.6392 10.2 26.1356 9.50706 27.959C8.81417 29.7824 8.83179 31.7997 9.55645 33.6107C9.70778 35.5699 10.6238 37.3908 12.1066 38.6802C13.5894 39.9696 15.5199 40.6239 17.4811 40.5017C19.2256 39.6289 20.5784 38.1325 21.2713 36.3091C21.9642 34.4857 21.9466 32.4684 21.2219 30.6574C21.0706 28.6983 20.1546 26.8773 18.6718 25.5879C17.189 24.2985 15.2585 23.6442 13.2973 23.7664ZM66.7025 23.7664C68.447 24.6392 69.7998 26.1356 70.4927 27.959C71.1856 29.7824 71.168 31.7997 70.4433 33.6107C70.292 35.5699 69.376 37.3908 67.8932 38.6802C66.4104 39.9696 64.4799 40.6239 62.5187 40.5017C60.7742 39.6289 59.4213 38.1325 58.7285 36.3091C58.0356 34.4857 58.0532 32.4684 58.7778 30.6574C58.9292 28.6983 59.8452 26.8773 61.328 25.5879C62.8108 24.2985 64.7413 23.6442 66.7025 23.7664ZM28.0637 9C24.7166 9.44299 23.1416 13.6268 24.3229 18.2044C24.5859 20.1756 25.5154 21.9975 26.957 23.3675C28.3986 24.7374 30.2654 25.573 32.2475 25.7353C35.5946 25.2923 37.1696 21.1085 35.9883 16.5309C35.7253 14.5596 34.7958 12.7377 33.3542 11.3678C31.9126 9.99782 30.0458 9.1623 28.0637 9ZM51.9361 9C55.2831 9.44299 56.8582 13.6268 55.6769 18.2044C55.4119 20.1833 54.4753 22.0112 53.0238 23.3821C51.5722 24.753 49.6938 25.5837 47.703 25.7353C44.356 25.3415 42.7809 21.1085 43.9622 16.5309C44.2272 14.552 45.1638 12.7241 46.6153 11.3532C48.0669 9.98228 49.9452 9.15154 51.9361 9Z" fill="#3A6DAE" fill-opacity="0.9"/>
</svg>
