<svg width="80" height="80" viewBox="0 0 80 80" fill="none" xmlns="http://www.w3.org/2000/svg">
<path d="M66.187 29.7597L59.0403 72.4263C58.9283 73.0385 58.6057 73.5922 58.1285 73.9915C57.6512 74.3909 57.0493 74.6107 56.427 74.613H23.5737C22.9514 74.6107 22.3494 74.3909 21.8722 73.9915C21.3949 73.5922 21.0723 73.0385 20.9603 72.4263L13.8137 29.7597C13.7521 29.3799 13.7734 28.9914 13.8762 28.6207C13.9789 28.25 14.1607 27.9059 14.4089 27.612C14.6572 27.3181 14.9661 27.0815 15.3144 26.9182C15.6628 26.755 16.0423 26.6691 16.427 26.6663H63.5203C63.9095 26.6613 64.2951 26.7416 64.6499 26.9014C65.0048 27.0612 65.3204 27.2968 65.5745 27.5916C65.8286 27.8864 66.0151 28.2332 66.1209 28.6078C66.2268 28.9823 66.2493 29.3755 66.187 29.7597ZM69.3337 18.6663C69.3337 19.3736 69.0527 20.0519 68.5526 20.552C68.0525 21.0521 67.3742 21.333 66.667 21.333H13.3337C12.6264 21.333 11.9481 21.0521 11.448 20.552C10.9479 20.0519 10.667 19.3736 10.667 18.6663C10.667 17.9591 10.9479 17.2808 11.448 16.7807C11.9481 16.2806 12.6264 15.9997 13.3337 15.9997H26.667V7.99967C26.667 7.29243 26.9479 6.61415 27.448 6.11406C27.9481 5.61396 28.6264 5.33301 29.3337 5.33301H50.667C51.3742 5.33301 52.0525 5.61396 52.5526 6.11406C53.0527 6.61415 53.3337 7.29243 53.3337 7.99967V15.9997H66.667C67.3742 15.9997 68.0525 16.2806 68.5526 16.7807C69.0527 17.2808 69.3337 17.9591 69.3337 18.6663ZM48.0003 15.9997V10.6663H32.0003V15.9997H48.0003Z" fill="#3A6DAE" fill-opacity="0.9"/>
</svg>
