<svg width="80" height="80" viewBox="0 0 80 80" fill="none" xmlns="http://www.w3.org/2000/svg">
<path d="M65.3834 34.9698C63.06 33.6237 60.4948 32.7471 57.8334 32.3898C58.8549 29.9076 59.379 27.249 59.3759 24.5648C59.3759 13.5648 50.7834 4.55984 39.9509 3.90234C43.9014 4.22722 47.5854 6.02507 50.2722 8.93926C52.959 11.8535 54.4523 15.6711 54.4559 19.6348C54.4559 28.0673 47.8234 34.9423 39.4984 35.3698V38.5998C40.1929 38.7122 40.854 38.9768 41.4342 39.3747C42.0144 39.7726 42.4994 40.2939 42.8545 40.9013C43.2096 41.5087 43.4259 42.1871 43.4879 42.8879C43.55 43.5887 43.4562 44.2945 43.2134 44.9548L46.1634 46.6623C50.7309 39.7673 59.9384 37.5173 67.1884 41.7123C70.6567 43.7137 73.234 46.9591 74.3979 50.7905C75.5617 54.6219 75.225 58.7525 73.4559 62.3448C78.4634 52.5948 74.9834 40.5098 65.3834 34.9698ZM10.3034 41.4698C17.6034 37.2523 26.8734 39.5573 31.4084 46.5523L34.2584 44.9123C34.0834 44.4123 33.9884 43.8698 33.9884 43.3073C33.9884 41.0323 35.5834 39.1323 37.7134 38.6573V35.3623C33.7087 35.1144 29.9489 33.3496 27.1994 30.4273C24.4498 27.505 22.9172 23.6448 22.9134 19.6323C22.9132 15.6882 24.3905 11.887 27.0541 8.97807C29.7178 6.06918 33.3745 4.26363 37.3034 3.91734C26.5234 4.62984 17.9784 13.6048 17.9784 24.5623C17.9734 27.1735 18.4672 29.7615 19.4334 32.1873C16.9234 32.5548 14.4334 33.3873 12.1084 34.7373C2.57593 40.2373 -0.916572 52.1998 3.94593 61.9123C2.2404 58.3301 1.94732 54.2368 3.12511 50.4481C4.30289 46.6595 6.86505 43.4537 10.3009 41.4698H10.3034ZM27.8734 28.6298C28.4427 29.3218 29.0782 29.9565 29.7709 30.5248C30.0209 30.7373 30.2959 30.9248 30.5634 31.1173C32.9718 29.534 35.7912 28.691 38.6734 28.6923C41.6784 28.6923 44.4559 29.5873 46.7809 31.1173C47.0484 30.9248 47.3234 30.7373 47.5759 30.5273C48.6142 29.6702 49.5258 28.6703 50.2834 27.5573C46.9216 25.0762 42.8542 23.7359 38.6759 23.7323H38.2159C34.0509 23.8323 30.2159 25.2473 27.0609 27.5573C27.3226 27.929 27.5943 28.2873 27.8759 28.6323L27.8734 28.6298ZM23.1734 41.9673C22.3331 41.6524 21.464 41.4204 20.5784 41.2748C20.1358 41.1967 19.6894 41.1424 19.2409 41.1123C18.776 45.2647 19.6502 49.4569 21.7359 53.0773C23.8268 56.6961 27.0197 59.5517 30.8484 61.2273C31.5875 59.7172 32.0434 58.0844 32.1934 56.4098C29.6197 55.1146 27.4817 53.0939 26.0434 50.5973C24.5995 48.1028 23.9181 45.2399 24.0834 42.3623C23.7834 42.2248 23.4834 42.0848 23.1734 41.9673ZM45.3034 56.6423C45.3384 56.9723 45.3634 57.2998 45.4184 57.6273C45.4918 58.0723 45.5859 58.5098 45.7009 58.9398C45.9398 59.8065 46.2561 60.6499 46.6459 61.4598C50.4726 59.7857 53.6644 56.9329 55.7559 53.3173C57.8444 49.696 58.7204 45.5019 58.2559 41.3473C56.9128 41.4468 55.5901 41.7329 54.3259 42.1973C54.0159 42.3148 53.7259 42.4598 53.4209 42.5973C53.5852 45.4732 52.9039 48.3342 51.4609 50.8273C50.0213 53.3246 47.8815 55.3454 45.3059 56.6398L45.3034 56.6423ZM51.4209 69.0273C47.924 67.0053 45.3365 63.7183 44.1922 59.8443C43.0479 55.9703 43.434 51.805 45.2709 48.2073L42.2884 46.4823C41.4134 47.4573 40.1534 48.0698 38.7459 48.0698C38.0655 48.0707 37.3929 47.9254 36.7735 47.6438C36.1541 47.3621 35.6025 46.9507 35.1559 46.4373L32.2909 48.1023C35.9784 55.5023 33.3259 64.5973 26.0709 68.7823C22.613 70.7791 18.5265 71.3902 14.6357 70.4924C10.7449 69.5947 7.33937 67.2548 5.10593 63.9448C11.0559 73.1123 23.2309 76.1198 32.8059 70.5898C35.0562 69.2936 37.0397 67.5816 38.6509 65.5448C40.6743 68.1624 43.2955 70.257 46.2949 71.6531C49.2944 73.0492 52.5847 73.7063 55.8903 73.5692C59.1959 73.4321 62.4205 72.5048 65.294 70.8651C68.1675 69.2254 70.6062 66.921 72.4059 64.1448C70.1788 67.4682 66.7722 69.8213 62.8757 70.7278C58.9791 71.6343 54.8862 71.0265 51.4209 69.0273Z" fill="#3A6DAE" fill-opacity="0.9"/>
</svg>
