<svg width="19" height="15" viewBox="0 0 19 15" fill="none" xmlns="http://www.w3.org/2000/svg">
<path d="M14.7186 8.19643C14.9793 8.19643 15.1979 8.109 15.3745 7.93414C15.5511 7.75929 15.6391 7.54314 15.6385 7.28571C15.6379 7.02829 15.5496 6.81214 15.3736 6.63729C15.1976 6.46243 14.9793 6.375 14.7186 6.375H11.9589C11.6982 6.375 11.4799 6.46243 11.3039 6.63729C11.1279 6.81214 11.0396 7.02829 11.039 7.28571C11.0383 7.54314 11.1267 7.75959 11.3039 7.93505C11.4811 8.11052 11.6995 8.19764 11.9589 8.19643H14.7186ZM14.7186 5.46429C14.9793 5.46429 15.1979 5.37686 15.3745 5.202C15.5511 5.02714 15.6391 4.811 15.6385 4.55357C15.6379 4.29614 15.5496 4.08 15.3736 3.90514C15.1976 3.73029 14.9793 3.64286 14.7186 3.64286H11.9589C11.6982 3.64286 11.4799 3.73029 11.3039 3.90514C11.1279 4.08 11.0396 4.29614 11.039 4.55357C11.0383 4.811 11.1267 5.02745 11.3039 5.20291C11.4811 5.37838 11.6995 5.4655 11.9589 5.46429H14.7186ZM6.43939 8.19643C5.88745 8.19643 5.38916 8.24591 4.94453 8.34488C4.49991 8.44384 4.10895 8.59927 3.77164 8.81116C3.44968 9.00848 3.20437 9.23252 3.03571 9.48327C2.86706 9.73402 2.78274 10.0033 2.78274 10.2911C2.78274 10.4732 2.85173 10.625 2.98972 10.7464C3.12771 10.8679 3.29636 10.9286 3.49567 10.9286H9.38312C9.58243 10.9286 9.75108 10.8639 9.88907 10.7346C10.0271 10.6053 10.0961 10.4423 10.0961 10.2455C10.0961 9.9875 10.0117 9.73705 9.84307 9.4942C9.67442 9.25134 9.42911 9.02366 9.10714 8.81116C8.76984 8.59866 8.37888 8.44293 7.93425 8.34396C7.48963 8.245 6.99134 8.19582 6.43939 8.19643ZM6.43939 7.28571C6.94535 7.28571 7.37832 7.10752 7.73831 6.75113C8.0983 6.39473 8.27861 5.96579 8.27922 5.46429C8.27983 4.96279 8.09984 4.53414 7.73923 4.17836C7.37863 3.82257 6.94535 3.64407 6.43939 3.64286C5.93344 3.64164 5.50047 3.82014 5.14048 4.17836C4.78048 4.53657 4.60018 4.96521 4.59957 5.46429C4.59895 5.96336 4.77926 6.3923 5.14048 6.75113C5.5017 7.10995 5.93467 7.28814 6.43939 7.28571ZM1.83983 14.5714C1.33387 14.5714 0.900902 14.3932 0.540909 14.0368C0.180916 13.6804 0.000613276 13.2515 0 12.75V1.82143C0 1.32054 0.180303 0.891893 0.540909 0.5355C0.901515 0.179107 1.33449 0.000607143 1.83983 0H16.5584C17.0644 0 17.4977 0.1785 17.8583 0.5355C18.2189 0.8925 18.3989 1.32114 18.3983 1.82143V12.75C18.3983 13.2509 18.2183 13.6798 17.8583 14.0368C17.4983 14.3938 17.065 14.572 16.5584 14.5714H1.83983Z" fill="#6A98D2"/>
</svg>
