<svg width="18" height="18" viewBox="0 0 18 18" fill="none" xmlns="http://www.w3.org/2000/svg">
<path d="M14.7422 13.6641C14.9141 13.25 15 12.8555 15 12.4805C15 12.3945 14.9922 12.332 14.9766 12.293C14.9531 12.2305 14.8027 12.1152 14.5254 11.9473C14.248 11.7793 13.9023 11.5859 13.4883 11.3672L12.8672 11.0273C12.8281 11.0039 12.7539 10.9531 12.6445 10.875C12.5352 10.7969 12.4375 10.7383 12.3516 10.6992C12.2656 10.6602 12.1836 10.6406 12.1055 10.6406C11.9648 10.6406 11.7812 10.7676 11.5547 11.0215C11.3281 11.2754 11.1055 11.5312 10.8867 11.7891C10.668 12.0469 10.4961 12.1758 10.3711 12.1758C10.3164 12.1758 10.252 12.1621 10.1777 12.1348C10.1035 12.1074 10.043 12.082 9.99609 12.0586C9.94922 12.0352 9.88281 11.998 9.79688 11.9473C9.71094 11.8965 9.65625 11.8633 9.63281 11.8477C8.85938 11.418 8.19336 10.9238 7.63477 10.3652C7.07617 9.80664 6.58203 9.14062 6.15234 8.36719C6.13672 8.34375 6.10352 8.28906 6.05273 8.20312C6.00195 8.11719 5.96484 8.05078 5.94141 8.00391C5.91797 7.95703 5.89258 7.89648 5.86523 7.82227C5.83789 7.74805 5.82422 7.68359 5.82422 7.62891C5.82422 7.52734 5.9043 7.39648 6.06445 7.23633C6.22461 7.07617 6.40039 6.92578 6.5918 6.78516C6.7832 6.64453 6.95898 6.49023 7.11914 6.32227C7.2793 6.1543 7.35937 6.01172 7.35937 5.89453C7.35937 5.81641 7.33984 5.73438 7.30078 5.64844C7.26172 5.5625 7.20312 5.46484 7.125 5.35547C7.04688 5.24609 6.99609 5.17188 6.97266 5.13281C6.94922 5.08594 6.89062 4.97461 6.79687 4.79883C6.70312 4.62305 6.60547 4.44531 6.50391 4.26562C6.40234 4.08594 6.29883 3.90039 6.19336 3.70898C6.08789 3.51758 5.99023 3.35938 5.90039 3.23438C5.81055 3.10938 5.74609 3.03906 5.70703 3.02344C5.66797 3.00781 5.60547 3 5.51953 3C5.14453 3 4.75 3.08594 4.33594 3.25781C3.97656 3.42187 3.66406 3.79102 3.39844 4.36523C3.13281 4.93945 3 5.44922 3 5.89453C3 6.01953 3.00977 6.15234 3.0293 6.29297C3.04883 6.43359 3.06836 6.55273 3.08789 6.65039C3.10742 6.74805 3.14258 6.87695 3.19336 7.03711C3.24414 7.19727 3.2832 7.3125 3.31055 7.38281C3.33789 7.45312 3.38672 7.58203 3.45703 7.76953C3.52734 7.95703 3.57031 8.07422 3.58594 8.12109C4.05469 9.40234 4.90039 10.6543 6.12305 11.877C7.3457 13.0996 8.59766 13.9453 9.87891 14.4141C9.92578 14.4297 10.043 14.4727 10.2305 14.543C10.418 14.6133 10.5469 14.6621 10.6172 14.6895C10.6875 14.7168 10.8027 14.7559 10.9629 14.8066C11.123 14.8574 11.252 14.8926 11.3496 14.9121C11.4473 14.9316 11.5664 14.9512 11.707 14.9707C11.8477 14.9902 11.9805 15 12.1055 15C12.5508 15 13.0605 14.8672 13.6348 14.6016C14.209 14.3359 14.5781 14.0234 14.7422 13.6641ZM17.0098 0.990234C17.6699 1.65039 18 2.44531 18 3.375V14.625C18 15.5547 17.6699 16.3496 17.0098 17.0098C16.3496 17.6699 15.5547 18 14.625 18H3.375C2.44531 18 1.65039 17.6699 0.990234 17.0098C0.330078 16.3496 0 15.5547 0 14.625V3.375C0 2.44531 0.330078 1.65039 0.990234 0.990234C1.65039 0.330078 2.44531 0 3.375 0H14.625C15.5547 0 16.3496 0.330078 17.0098 0.990234Z" fill="#6A98D2"/>
</svg>
