<svg width="18" height="18" viewBox="0 0 18 18" fill="none" xmlns="http://www.w3.org/2000/svg">
<path d="M3.375 0H14.625C15.5547 0 16.3496 0.330078 17.0098 0.990234C17.6699 1.65039 18 2.44531 18 3.375V14.625C18 15.5547 17.6699 16.3496 17.0098 17.0098C16.3496 17.6699 15.5547 18 14.625 18H3.375C2.44531 18 1.65039 17.6699 0.990234 17.0098C0.330078 16.3496 0 15.5547 0 14.625V3.375C0 2.44531 0.330078 1.65039 0.990234 0.990234C1.65039 0.330078 2.44531 0 3.375 0ZM14.6719 13.1719C14.8906 12.9531 15 12.6875 15 12.375V7.26562C14.7578 7.53906 14.5078 7.75391 14.25 7.91016C13.9844 8.08203 13.4668 8.41406 12.6973 8.90625C11.9277 9.39844 11.3359 9.78516 10.9219 10.0664C10.1562 10.6055 9.51562 10.875 9 10.875C8.48438 10.875 7.84375 10.6055 7.07812 10.0664C6.71875 9.81641 6.16602 9.45508 5.41992 8.98242C4.67383 8.50977 4.11719 8.14844 3.75 7.89844C3.65625 7.83594 3.52734 7.73047 3.36328 7.58203C3.19922 7.43359 3.07812 7.32812 3 7.26562V12.375C3 12.6875 3.10938 12.9531 3.32812 13.1719C3.54688 13.3906 3.8125 13.5 4.125 13.5H13.875C14.1875 13.5 14.4531 13.3906 14.6719 13.1719ZM14.6309 6.52148C14.877 6.21289 15 5.92578 15 5.66016C15 5.33984 14.8926 5.06641 14.6777 4.83984C14.4629 4.61328 14.1953 4.5 13.875 4.5H4.125C3.8125 4.5 3.54688 4.60938 3.32812 4.82812C3.10938 5.04688 3 5.3125 3 5.625C3 5.91406 3.11914 6.21289 3.35742 6.52148C3.5957 6.83008 3.85938 7.08203 4.14844 7.27734C4.51562 7.52734 5.05273 7.875 5.75977 8.32031C6.4668 8.76562 6.97266 9.08984 7.27734 9.29297C7.30078 9.30859 7.36719 9.35352 7.47656 9.42773C7.58594 9.50195 7.66797 9.55664 7.72266 9.5918C7.77734 9.62695 7.85937 9.67773 7.96875 9.74414C8.07812 9.81055 8.16992 9.86133 8.24414 9.89648C8.31836 9.93164 8.40234 9.96875 8.49609 10.0078C8.58984 10.0469 8.67773 10.0762 8.75977 10.0957C8.8418 10.1152 8.92188 10.125 9 10.125C9.07812 10.125 9.1582 10.1152 9.24023 10.0957C9.32227 10.0762 9.41016 10.0469 9.50391 10.0078C9.59766 9.96875 9.68164 9.93164 9.75586 9.89648C9.83008 9.86133 9.92188 9.81055 10.0312 9.74414C10.1406 9.67773 10.2227 9.62695 10.2773 9.5918C10.332 9.55664 10.4141 9.50195 10.5234 9.42773C10.6328 9.35352 10.6992 9.30859 10.7227 9.29297L13.8516 7.25391C14.125 7.07422 14.3848 6.83008 14.6309 6.52148Z" fill="#6A98D2"/>
</svg>
